<svg xmlns="http://www.w3.org/2000/svg" width="142" height="142" viewBox="0 0 142 142">
  <g id="dart" transform="translate(0 0.261)">
    <rect id="Rectangle_2871" data-name="Rectangle 2871" width="142" height="142" rx="40" transform="translate(0 -0.261)" fill="#ecf6fb"/>
    <path id="Path_1489" data-name="Path 1489" d="M178.811,233.933a23.618,23.618,0,1,1,7.024-46.168.651.651,0,0,1-.388,1.242,22.3,22.3,0,1,0,14.667,14.661.654.654,0,0,1,1.247-.388,23.64,23.64,0,0,1-22.55,30.653" transform="translate(-112.177 -135.013)" fill="#005ba6" stroke="#005ba6" stroke-miterlimit="10" stroke-width="2"/>
    <path id="Path_1490" data-name="Path 1490" d="M207.811,251.759a12.51,12.51,0,1,1,3.712-24.463.654.654,0,0,1-.388,1.247,11.188,11.188,0,1,0,7.382,7.343.652.652,0,0,1,1.245-.391,12.518,12.518,0,0,1-11.95,16.263" transform="translate(-141.178 -163.955)" fill="#005ba6" stroke="#005ba6" stroke-miterlimit="10" stroke-width="2"/>
    <path id="Path_1491" data-name="Path 1491" d="M150.234,216.314a34.578,34.578,0,1,1,13.879-66.251.652.652,0,1,1-.524,1.195,33.264,33.264,0,1,0,17.1,17.062.654.654,0,0,1,1.195-.529,34.595,34.595,0,0,1-31.648,48.524" transform="translate(-83.6 -106.434)" fill="#005ba6" stroke="#005ba6" stroke-miterlimit="10" stroke-width="2"/>
    <path id="Path_1492" data-name="Path 1492" d="M279.911,147.791a.654.654,0,0,1-.651-.651V135.37a.654.654,0,0,1,.191-.46L298.8,115.561a.651.651,0,0,1,1.109.463v11.72a.654.654,0,0,1-1.306,0V117.6l-18.026,18.043v11.507a.651.651,0,0,1-.651.651" transform="translate(-201.849 -83.461)" fill="#005ba6" stroke="#005ba6" stroke-miterlimit="10" stroke-width="2"/>
    <path id="Path_1493" data-name="Path 1493" d="M291.925,178.611h-11.77a.654.654,0,0,1,0-1.306h11.5L309.7,159.263H299.562a.651.651,0,0,1,0-1.3h11.709a.651.651,0,0,1,.46,1.109l-19.346,19.349a.663.663,0,0,1-.46.188" transform="translate(-202.054 -114.242)" fill="#005ba6" stroke="#005ba6" stroke-miterlimit="10" stroke-width="2"/>
    <path id="Path_1494" data-name="Path 1494" d="M238.7,240.7a.654.654,0,0,1-.46-1.109l11.57-11.57a.653.653,0,0,1,.923.923l-11.57,11.57a.654.654,0,0,1-.463.191" transform="translate(-172.067 -164.745)" fill="#005ba6" stroke="#005ba6" stroke-miterlimit="10" stroke-width="2"/>
  </g>
</svg>
