<svg xmlns="http://www.w3.org/2000/svg" width="26.787" height="24.862" viewBox="0 0 26.787 24.862">
  <path id="Path_1372" data-name="Path 1372" d="M184.535,108.324h-2.117v-1.347a.577.577,0,0,0-1.154,0v1.347H169.333v-1.347a.577.577,0,1,0-1.154,0v1.347h-2.117a3.679,3.679,0,0,0-3.656,3.656v14.625a3.679,3.679,0,0,0,3.656,3.656h18.474a3.679,3.679,0,0,0,3.656-3.656V111.98a3.655,3.655,0,0,0-3.657-3.656Zm-18.474,1.155h2.117v2.887a.577.577,0,1,0,1.154,0v-2.887h11.931v2.887a.577.577,0,1,0,1.154,0v-2.887h2.117a2.5,2.5,0,0,1,2.5,2.5v4H163.559v-4a2.5,2.5,0,0,1,2.5-2.5Zm18.474,19.629H166.061a2.5,2.5,0,0,1-2.5-2.5v-9.468h23.477v9.468a2.5,2.5,0,0,1-2.5,2.5Z" transform="translate(-161.905 -105.9)" stroke="#000" stroke-width="1"/>
</svg>
