<svg xmlns="http://www.w3.org/2000/svg" xmlns:xlink="http://www.w3.org/1999/xlink" width="35.013" height="38.903" viewBox="0 0 35.013 38.903">
  <defs>
    <clipPath id="clip-path">
      <rect id="Rectangle_522" data-name="Rectangle 522" width="35.013" height="38.903" rx="3" transform="translate(0 0)" fill="#005ba6"/>
    </clipPath>
  </defs>
  <g id="Mask_Group_15" data-name="Mask Group 15" clip-path="url(#clip-path)">
    <path id="Path_1325" data-name="Path 1325" d="M43.851-20A10.851,10.851,0,0,0,33-9.149V23.4A10.851,10.851,0,0,0,43.851,34.253H76.4A10.851,10.851,0,0,0,87.253,23.4V-9.149A10.851,10.851,0,0,0,76.4-20ZM38.425-9.149a5.425,5.425,0,0,1,5.425-5.425H76.4a5.425,5.425,0,0,1,5.425,5.425V23.4A5.425,5.425,0,0,1,76.4,28.828H43.851A5.425,5.425,0,0,1,38.425,23.4ZM51.989,4.414a2.713,2.713,0,0,0-5.425,0V20.69a2.713,2.713,0,0,0,5.425,0ZM53.345-5.08a4.069,4.069,0,0,1-4.069,4.069A4.069,4.069,0,0,1,45.207-5.08a4.069,4.069,0,0,1,4.069-4.069A4.069,4.069,0,0,1,53.345-5.08ZM60.126,1.7a2.708,2.708,0,0,1,2.224,1.161A9.523,9.523,0,0,1,66.908,1.7c5.859,0,9.494,5.225,9.494,9.687v9.3a2.713,2.713,0,1,1-5.425,0v-9.3a4.328,4.328,0,0,0-4.069-4.262,4.774,4.774,0,0,0-4.069,2.612V20.69a2.713,2.713,0,1,1-5.425,0V4.414A2.713,2.713,0,0,1,60.126,1.7Z" transform="translate(-42.573 11.475)" fill="#005ba6" fill-rule="evenodd"/>
  </g>
</svg>
