<svg xmlns="http://www.w3.org/2000/svg" width="299.242" height="59.491" viewBox="0 0 299.242 59.491">
  <g id="Group_2316" data-name="Group 2316" transform="translate(-603 -17680)">
    <path id="Path_25" data-name="Path 25" d="M67.506,38.2H63.979l-.416.975a2.037,2.037,0,0,0-.2.8.665.665,0,0,0,.344.616,2.765,2.765,0,0,0,.975.172v.272H61.37v-.272a1.508,1.508,0,0,0,.889-.444,5.762,5.762,0,0,0,.846-1.505l3.57-7.956h.143l3.6,8.171a5.123,5.123,0,0,0,.846,1.462,1.071,1.071,0,0,0,.7.258v.272H67.147v-.272h.2a1.6,1.6,0,0,0,.817-.158.366.366,0,0,0,.158-.344.635.635,0,0,0-.043-.272,4.873,4.873,0,0,0-.215-.545l-.53-1.247Zm-.244-.545-1.491-3.426-1.534,3.426h3.011Z" transform="translate(629.616 17693.381)" fill="#fff"/>
    <path id="Path_26" data-name="Path 26" d="M75.451,33.16v5.376a1.913,1.913,0,0,0,.143.975.844.844,0,0,0,.6.244v.258H73.4V39.1a3.789,3.789,0,0,1-.989.86,2.373,2.373,0,0,1-1.1.272,1.588,1.588,0,0,1-1.032-.358,1.752,1.752,0,0,1-.6-.831,6.187,6.187,0,0,1-.158-1.663V34.651a1.95,1.95,0,0,0-.143-.975.844.844,0,0,0-.6-.244V33.16h2.8v4.7a4.058,4.058,0,0,0,.072.946.665.665,0,0,0,.215.33.583.583,0,0,0,.344.115.8.8,0,0,0,.473-.143,2.961,2.961,0,0,0,.7-.774v-3.67a1.951,1.951,0,0,0-.143-.975.844.844,0,0,0-.6-.244v-.272h2.8Z" transform="translate(632.826 17694.379)" fill="#fff"/>
    <path id="Path_27" data-name="Path 27" d="M78.743,33.03l.115,2.351h-.244a3.623,3.623,0,0,0-.932-1.434,1.532,1.532,0,0,0-.961-.387.751.751,0,0,0-.516.2.612.612,0,0,0-.215.473.619.619,0,0,0,.143.387,7.3,7.3,0,0,0,1.319,1.032A5.416,5.416,0,0,1,78.872,36.9a2,2,0,0,1,.344,1.147,2.4,2.4,0,0,1-.287,1.118,1.991,1.991,0,0,1-.8.846,2.247,2.247,0,0,1-1.147.3A3.8,3.8,0,0,1,75.661,40a.986.986,0,0,0-.3-.086c-.158,0-.3.115-.4.373h-.244L74.6,37.818h.244a3.319,3.319,0,0,0,.9,1.462,1.71,1.71,0,0,0,1.09.487.79.79,0,0,0,.573-.215.726.726,0,0,0,.229-.53.95.95,0,0,0-.215-.616,5.282,5.282,0,0,0-.989-.774,7.515,7.515,0,0,1-1.448-1.19,2.043,2.043,0,0,1-.487-1.333,2.184,2.184,0,0,1,.545-1.434,1.942,1.942,0,0,1,1.577-.645A2.22,2.22,0,0,1,77.7,33.3a.754.754,0,0,0,.33.115.345.345,0,0,0,.215-.057,1.4,1.4,0,0,0,.258-.315h.244Z" transform="translate(635.309 17694.32)" fill="#fff"/>
    <path id="Path_28" data-name="Path 28" d="M81.309,31.414v2.509h1.634v.731H81.309V38.9a2.915,2.915,0,0,0,.057.774.491.491,0,0,0,.2.272.393.393,0,0,0,.258.1q.473,0,.9-.731l.215.158a2.006,2.006,0,0,1-1.935,1.4,1.7,1.7,0,0,1-1.1-.358,1.624,1.624,0,0,1-.573-.817,7.574,7.574,0,0,1-.072-1.348V34.64H78.37v-.258a8.829,8.829,0,0,0,1.577-1.376A8.52,8.52,0,0,0,81.079,31.4h.244Z" transform="translate(636.988 17693.613)" fill="#fff"/>
    <path id="Path_29" data-name="Path 29" d="M84.85,33.221v1.563a5.164,5.164,0,0,1,1.2-1.419,1.794,1.794,0,0,1,.989-.344.886.886,0,0,1,.659.258.969.969,0,0,1,.244.717,1.1,1.1,0,0,1-.244.76.732.732,0,0,1-.573.272,1.023,1.023,0,0,1-.674-.244,1.622,1.622,0,0,0-.344-.272.306.306,0,0,0-.172-.043.646.646,0,0,0-.4.158,1.517,1.517,0,0,0-.459.717,4.99,4.99,0,0,0-.229,1.577v1.993a1.761,1.761,0,0,0,.057.53.564.564,0,0,0,.258.287,1.609,1.609,0,0,0,.588.115V40.1H82.04v-.258a.789.789,0,0,0,.6-.244,2.339,2.339,0,0,0,.158-1.1V34.7a2.656,2.656,0,0,0-.057-.745.548.548,0,0,0-.215-.3,1.059,1.059,0,0,0-.487-.129v-.272h2.81Z" transform="translate(638.579 17694.316)" fill="#fff"/>
    <path id="Path_30" data-name="Path 30" d="M90.2,39.088a3.571,3.571,0,0,1-2.251,1.1,1.329,1.329,0,0,1-.975-.387,1.3,1.3,0,0,1-.387-.961,1.931,1.931,0,0,1,.674-1.419,12.937,12.937,0,0,1,2.953-1.677V35.06a3.224,3.224,0,0,0-.086-.975.82.82,0,0,0-.315-.358.961.961,0,0,0-.53-.158,1.347,1.347,0,0,0-.788.215.356.356,0,0,0-.186.3.711.711,0,0,0,.2.387.967.967,0,0,1,.287.616.8.8,0,0,1-.272.616.964.964,0,0,1-.7.258,1.088,1.088,0,0,1-.774-.272.88.88,0,0,1-.315-.659,1.578,1.578,0,0,1,.416-1.018,2.77,2.77,0,0,1,1.176-.745,4.764,4.764,0,0,1,1.563-.258,2.641,2.641,0,0,1,1.548.416,1.888,1.888,0,0,1,.745.9,5.667,5.667,0,0,1,.1,1.419v2.666a1.745,1.745,0,0,0,.043.588.263.263,0,0,0,.115.172.351.351,0,0,0,.172.057c.129,0,.258-.086.387-.272l.215.172a2.677,2.677,0,0,1-.76.788,1.566,1.566,0,0,1-.889.244,1.374,1.374,0,0,1-.917-.272,1.242,1.242,0,0,1-.4-.831Zm0-.545V36.25a4.2,4.2,0,0,0-1.319,1.118,1.375,1.375,0,0,0-.287.8.87.87,0,0,0,.244.6.68.68,0,0,0,.516.2,1.4,1.4,0,0,0,.846-.416Z" transform="translate(640.552 17694.313)" fill="#fff"/>
    <path id="Path_31" data-name="Path 31" d="M94.256,31v8.544a1.637,1.637,0,0,0,.172.932.915.915,0,0,0,.659.229v.258H91.374v-.258a.883.883,0,0,0,.674-.258,1.627,1.627,0,0,0,.143-.889V32.448a1.58,1.58,0,0,0-.172-.917.915.915,0,0,0-.659-.229v-.272h2.882Z" transform="translate(642.619 17693.441)" fill="#fff"/>
    <path id="Path_32" data-name="Path 32" d="M97.166,34.166v5.448a1.637,1.637,0,0,0,.172.932.915.915,0,0,0,.659.229v.258H94.284v-.258a.883.883,0,0,0,.674-.258,1.628,1.628,0,0,0,.143-.889V35.614a1.637,1.637,0,0,0-.172-.932.915.915,0,0,0-.659-.229V34.18h2.882ZM96.134,30.84a1.1,1.1,0,0,1,.8.33,1.127,1.127,0,0,1,.33.8,1.1,1.1,0,0,1-.33.8,1.127,1.127,0,0,1-.8.33,1.135,1.135,0,0,1-.8-1.935A1.05,1.05,0,0,1,96.134,30.84Z" transform="translate(643.881 17693.371)" fill="#fff"/>
    <path id="Path_33" data-name="Path 33" d="M101.073,39.088a3.572,3.572,0,0,1-2.251,1.1,1.329,1.329,0,0,1-.975-.387,1.3,1.3,0,0,1-.387-.961,1.931,1.931,0,0,1,.674-1.419,12.938,12.938,0,0,1,2.953-1.677V35.06a3.225,3.225,0,0,0-.086-.975.82.82,0,0,0-.315-.358.961.961,0,0,0-.53-.158,1.347,1.347,0,0,0-.788.215.356.356,0,0,0-.186.3.711.711,0,0,0,.2.387.967.967,0,0,1,.287.616.8.8,0,0,1-.272.616.964.964,0,0,1-.7.258,1.088,1.088,0,0,1-.774-.272.88.88,0,0,1-.315-.659,1.577,1.577,0,0,1,.416-1.018,2.77,2.77,0,0,1,1.176-.745,4.764,4.764,0,0,1,1.563-.258,2.641,2.641,0,0,1,1.548.416,1.888,1.888,0,0,1,.745.9,5.668,5.668,0,0,1,.1,1.419v2.666a1.743,1.743,0,0,0,.043.588.263.263,0,0,0,.115.172.351.351,0,0,0,.172.057c.129,0,.258-.086.387-.272l.215.172a2.677,2.677,0,0,1-.76.788,1.566,1.566,0,0,1-.889.244,1.375,1.375,0,0,1-.917-.272,1.242,1.242,0,0,1-.4-.831Zm0-.545V36.25a4.2,4.2,0,0,0-1.319,1.118,1.375,1.375,0,0,0-.287.8.87.87,0,0,0,.244.6.68.68,0,0,0,.516.2,1.4,1.4,0,0,0,.846-.416Z" transform="translate(645.265 17694.313)" fill="#fff"/>
    <path id="Path_34" data-name="Path 34" d="M105.385,33.221v.889a3.878,3.878,0,0,1,1.018-.831,2.217,2.217,0,0,1,1.047-.258,1.658,1.658,0,0,1,1.1.373,1.757,1.757,0,0,1,.588.917,7.646,7.646,0,0,1,.115,1.606V38.6a1.982,1.982,0,0,0,.143.989.844.844,0,0,0,.6.244v.258h-3.469V39.83a.711.711,0,0,0,.559-.33,2.246,2.246,0,0,0,.115-.917V35.529a4.879,4.879,0,0,0-.072-1.061.64.64,0,0,0-.229-.344.5.5,0,0,0-.344-.115c-.416,0-.817.3-1.176.9V38.6a1.951,1.951,0,0,0,.143.975.7.7,0,0,0,.53.258v.258H102.59V39.83a.859.859,0,0,0,.616-.272,2.045,2.045,0,0,0,.129-.961V34.712a1.95,1.95,0,0,0-.143-.975.844.844,0,0,0-.6-.244v-.272h2.8Z" transform="translate(647.489 17694.316)" fill="#fff"/>
    <path id="Path_35" data-name="Path 35" d="M110.83,40.973V40.7h.33a1.341,1.341,0,0,0,.659-.129.788.788,0,0,0,.344-.373,3.487,3.487,0,0,0,.072-.932V32.716a3.108,3.108,0,0,0-.086-.96.667.667,0,0,0-.33-.33,1.251,1.251,0,0,0-.659-.143h-.33V31.01h4.458a6.972,6.972,0,0,1,2.867.487,4.29,4.29,0,0,1,2.021,1.806,5.379,5.379,0,0,1,.688,2.724,5.28,5.28,0,0,1-.344,1.935,4.25,4.25,0,0,1-2.107,2.394,6.945,6.945,0,0,1-1.72.545,8.292,8.292,0,0,1-1.4.086H110.83Zm3.8-9.4v7.77a2.647,2.647,0,0,0,.057.76.371.371,0,0,0,.2.215,1.227,1.227,0,0,0,.573.115,2.265,2.265,0,0,0,1.878-.831,5.7,5.7,0,0,0,.889-3.512,6.629,6.629,0,0,0-.6-3.068,2.533,2.533,0,0,0-1.233-1.219,4.493,4.493,0,0,0-1.763-.215Z" transform="translate(651.062 17693.445)" fill="#fff"/>
    <path id="Path_36" data-name="Path 36" d="M121.166,34.166v5.448a1.637,1.637,0,0,0,.172.932.915.915,0,0,0,.659.229v.258h-3.713v-.258a.883.883,0,0,0,.674-.258,1.628,1.628,0,0,0,.143-.889V35.614a1.637,1.637,0,0,0-.172-.932.915.915,0,0,0-.659-.229V34.18h2.882Zm-1.032-3.326a1.1,1.1,0,0,1,.8.33,1.128,1.128,0,0,1,.33.8,1.1,1.1,0,0,1-.33.8,1.128,1.128,0,0,1-.8.33,1.135,1.135,0,0,1-.8-1.935A1.05,1.05,0,0,1,120.134,30.84Z" transform="translate(654.287 17693.371)" fill="#fff"/>
    <path id="Path_37" data-name="Path 37" d="M125.738,33.311h2.322v.8h-1.319a2.585,2.585,0,0,1,.5.659,2.176,2.176,0,0,1-.229,2.107,2.745,2.745,0,0,1-1.1.846,3.267,3.267,0,0,1-1.247.3c-.029,0-.33,0-.889-.043a.8.8,0,0,0-.559.215.666.666,0,0,0-.229.516.558.558,0,0,0,.2.43,1.01,1.01,0,0,0,.659.172h1.276a4.392,4.392,0,0,1,2.122.33,1.539,1.539,0,0,1,.831,1.448,1.836,1.836,0,0,1-.387,1.133,2.316,2.316,0,0,1-1,.76,6.041,6.041,0,0,1-2.179.358,7.769,7.769,0,0,1-1.692-.172,2.205,2.205,0,0,1-1.09-.5.972.972,0,0,1-.33-.674.825.825,0,0,1,.258-.6,2.217,2.217,0,0,1,.946-.459,1.456,1.456,0,0,1-.961-1.3,1.573,1.573,0,0,1,.387-.989,3.09,3.09,0,0,1,1.233-.831,3.134,3.134,0,0,1-1.434-.946,2.158,2.158,0,0,1-.444-1.362,2.3,2.3,0,0,1,.817-1.749,3.02,3.02,0,0,1,2.122-.745,3.844,3.844,0,0,1,1.4.287Zm-1.706,7.8a2.426,2.426,0,0,0-.989.129.679.679,0,0,0-.416.616.826.826,0,0,0,.43.674,3.081,3.081,0,0,0,1.634.3,3.809,3.809,0,0,0,1.606-.272.849.849,0,0,0,.588-.76.411.411,0,0,0-.115-.3,1.087,1.087,0,0,0-.6-.3,14.811,14.811,0,0,0-2.136-.086Zm.43-7.641a.837.837,0,0,0-.717.43,3.622,3.622,0,0,0-.3,1.778,2.845,2.845,0,0,0,.287,1.505.809.809,0,0,0,.688.4.843.843,0,0,0,.731-.4,2.843,2.843,0,0,0,.3-1.577,3.447,3.447,0,0,0-.33-1.792.763.763,0,0,0-.659-.358Z" transform="translate(655.637 17694.313)" fill="#fff"/>
    <path id="Path_38" data-name="Path 38" d="M129.336,34.166v5.448a1.637,1.637,0,0,0,.172.932.915.915,0,0,0,.659.229v.258h-3.713v-.258a.883.883,0,0,0,.674-.258,1.628,1.628,0,0,0,.143-.889V35.614a1.637,1.637,0,0,0-.172-.932.915.915,0,0,0-.659-.229V34.18h2.882ZM128.3,30.84a1.1,1.1,0,0,1,.8.33,1.128,1.128,0,0,1,.33.8,1.1,1.1,0,0,1-.33.8,1.128,1.128,0,0,1-.8.33,1.135,1.135,0,0,1-.8-1.935A1.05,1.05,0,0,1,128.3,30.84Z" transform="translate(657.83 17693.371)" fill="#fff"/>
    <path id="Path_39" data-name="Path 39" d="M132.3,31.414v2.509h1.634v.731H132.3V38.9a2.914,2.914,0,0,0,.057.774.49.49,0,0,0,.2.272.393.393,0,0,0,.258.1q.473,0,.9-.731l.215.158a2.006,2.006,0,0,1-1.935,1.4,1.7,1.7,0,0,1-1.1-.358,1.624,1.624,0,0,1-.573-.817,7.576,7.576,0,0,1-.072-1.348V34.64h-.889v-.258a8.831,8.831,0,0,0,1.577-1.376,8.519,8.519,0,0,0,1.133-1.606h.244Z" transform="translate(659.096 17693.613)" fill="#fff"/>
    <path id="Path_40" data-name="Path 40" d="M136.743,39.088a3.572,3.572,0,0,1-2.251,1.1,1.329,1.329,0,0,1-.975-.387,1.3,1.3,0,0,1-.387-.961,1.93,1.93,0,0,1,.674-1.419,12.938,12.938,0,0,1,2.953-1.677V35.06a3.225,3.225,0,0,0-.086-.975.82.82,0,0,0-.315-.358.961.961,0,0,0-.53-.158,1.379,1.379,0,0,0-.788.215.356.356,0,0,0-.186.3.711.711,0,0,0,.2.387.967.967,0,0,1,.287.616.8.8,0,0,1-.272.616.988.988,0,0,1-.7.258,1.088,1.088,0,0,1-.774-.272.833.833,0,0,1-.315-.659,1.578,1.578,0,0,1,.416-1.018,2.683,2.683,0,0,1,1.176-.745,4.764,4.764,0,0,1,1.563-.258,2.641,2.641,0,0,1,1.548.416,1.851,1.851,0,0,1,.731.9,5.668,5.668,0,0,1,.1,1.419v2.666a1.744,1.744,0,0,0,.043.588.263.263,0,0,0,.115.172.351.351,0,0,0,.172.057c.129,0,.258-.086.387-.272l.215.172a2.677,2.677,0,0,1-.76.788,1.566,1.566,0,0,1-.889.244,1.374,1.374,0,0,1-.917-.272,1.242,1.242,0,0,1-.4-.831Zm0-.545V36.25a4.2,4.2,0,0,0-1.319,1.118,1.375,1.375,0,0,0-.287.8.87.87,0,0,0,.244.6.68.68,0,0,0,.516.2,1.4,1.4,0,0,0,.846-.416Z" transform="translate(660.731 17694.313)" fill="#fff"/>
    <path id="Path_41" data-name="Path 41" d="M141.006,31v8.544a1.637,1.637,0,0,0,.172.932.915.915,0,0,0,.659.229v.258h-3.713v-.258a.883.883,0,0,0,.674-.258,1.627,1.627,0,0,0,.143-.889V32.448a1.58,1.58,0,0,0-.172-.917.915.915,0,0,0-.659-.229v-.272h2.882Z" transform="translate(662.891 17693.441)" fill="#fff"/>
    <path id="Path_42" data-name="Path 42" d="M147.459,36.18v3.082a3.107,3.107,0,0,0,.086.961.731.731,0,0,0,.33.33,1.251,1.251,0,0,0,.659.143h.33v.272h-5.2V40.7h.33a1.455,1.455,0,0,0,.7-.158.691.691,0,0,0,.3-.358,2.878,2.878,0,0,0,.086-.932V32.7a3.107,3.107,0,0,0-.086-.961.667.667,0,0,0-.33-.33,1.251,1.251,0,0,0-.659-.143h-.33V30.99h5.2v.272h-.33a1.455,1.455,0,0,0-.7.158.691.691,0,0,0-.3.358,2.878,2.878,0,0,0-.086.932v2.824h3.527V32.71a3.108,3.108,0,0,0-.086-.961.667.667,0,0,0-.33-.33,1.307,1.307,0,0,0-.674-.143h-.33V31h5.2v.272h-.33a1.378,1.378,0,0,0-.7.158.691.691,0,0,0-.3.358,2.879,2.879,0,0,0-.086.932v6.552a3.108,3.108,0,0,0,.086.961.667.667,0,0,0,.33.33,1.307,1.307,0,0,0,.674.143h.33v.272h-5.2V40.71h.33a1.377,1.377,0,0,0,.7-.158.691.691,0,0,0,.3-.358,2.879,2.879,0,0,0,.086-.932V36.18h-3.527Z" transform="translate(665.297 17693.438)" fill="#fff"/>
    <path id="Path_43" data-name="Path 43" d="M157.339,36.418h-3.77a3.526,3.526,0,0,0,.731,2.165,1.569,1.569,0,0,0,1.219.616,1.432,1.432,0,0,0,.8-.244,2.915,2.915,0,0,0,.774-.889l.244.158a4.07,4.07,0,0,1-1.233,1.606,2.651,2.651,0,0,1-1.563.473,2.617,2.617,0,0,1-2.322-1.176,4.2,4.2,0,0,1-.631-2.351,3.912,3.912,0,0,1,.932-2.738A2.878,2.878,0,0,1,154.7,33.02a2.321,2.321,0,0,1,1.806.86,3.915,3.915,0,0,1,.831,2.537Zm-1.806-.487a6.674,6.674,0,0,0-.129-1.62,1.309,1.309,0,0,0-.4-.674.627.627,0,0,0-.416-.129.752.752,0,0,0-.631.373,3.216,3.216,0,0,0-.43,1.792v.258h1.993Z" transform="translate(668.735 17694.316)" fill="#fff"/>
    <path id="Path_44" data-name="Path 44" d="M159.733,39.088a3.571,3.571,0,0,1-2.251,1.1,1.329,1.329,0,0,1-.975-.387,1.3,1.3,0,0,1-.387-.961,1.931,1.931,0,0,1,.674-1.419,12.938,12.938,0,0,1,2.953-1.677V35.06a3.225,3.225,0,0,0-.086-.975.82.82,0,0,0-.315-.358.961.961,0,0,0-.53-.158,1.379,1.379,0,0,0-.788.215.356.356,0,0,0-.186.3.711.711,0,0,0,.2.387.967.967,0,0,1,.287.616.8.8,0,0,1-.272.616.988.988,0,0,1-.7.258,1.088,1.088,0,0,1-.774-.272.834.834,0,0,1-.315-.659,1.578,1.578,0,0,1,.416-1.018,2.684,2.684,0,0,1,1.176-.745,4.764,4.764,0,0,1,1.563-.258,2.641,2.641,0,0,1,1.548.416,1.852,1.852,0,0,1,.731.9,5.668,5.668,0,0,1,.1,1.419v2.666a1.744,1.744,0,0,0,.043.588.263.263,0,0,0,.115.172.351.351,0,0,0,.172.057c.129,0,.258-.086.387-.272l.215.172a2.678,2.678,0,0,1-.76.788,1.566,1.566,0,0,1-.889.244,1.375,1.375,0,0,1-.917-.272,1.242,1.242,0,0,1-.4-.831Zm0-.545V36.25a4.2,4.2,0,0,0-1.319,1.118,1.375,1.375,0,0,0-.287.8.87.87,0,0,0,.244.6.68.68,0,0,0,.516.2,1.4,1.4,0,0,0,.846-.416Z" transform="translate(670.7 17694.313)" fill="#fff"/>
    <path id="Path_45" data-name="Path 45" d="M164,31v8.544a1.637,1.637,0,0,0,.172.932.915.915,0,0,0,.659.229v.258h-3.713v-.258a.883.883,0,0,0,.674-.258,1.628,1.628,0,0,0,.143-.889V32.448a1.58,1.58,0,0,0-.172-.917.915.915,0,0,0-.659-.229v-.272h2.882Z" transform="translate(672.859 17693.441)" fill="#fff"/>
    <path id="Path_46" data-name="Path 46" d="M166.949,31.414v2.509h1.634v.731h-1.634V38.9a2.915,2.915,0,0,0,.057.774.491.491,0,0,0,.2.272.422.422,0,0,0,.258.1q.473,0,.9-.731l.215.158a2.006,2.006,0,0,1-1.935,1.4,1.7,1.7,0,0,1-1.1-.358,1.624,1.624,0,0,1-.573-.817,7.571,7.571,0,0,1-.072-1.348V34.64h-.889v-.258a8.829,8.829,0,0,0,1.577-1.376,8.079,8.079,0,0,0,1.133-1.606h.244Z" transform="translate(674.121 17693.613)" fill="#fff"/>
    <path id="Path_47" data-name="Path 47" d="M170.46,31v3.971a4.188,4.188,0,0,1,1.032-.846,2.007,2.007,0,0,1,.975-.244,1.712,1.712,0,0,1,1.1.373,1.789,1.789,0,0,1,.616.86,6.39,6.39,0,0,1,.158,1.677v2.681a1.913,1.913,0,0,0,.143.975.844.844,0,0,0,.6.244v.258h-3.484v-.258a.721.721,0,0,0,.545-.3,2.06,2.06,0,0,0,.129-.932V36.39a4.953,4.953,0,0,0-.072-1.075.64.64,0,0,0-.229-.344.538.538,0,0,0-.358-.115,1,1,0,0,0-.573.2,2.479,2.479,0,0,0-.6.717v3.684a2.247,2.247,0,0,0,.115.918.733.733,0,0,0,.573.315v.258H167.65v-.258a.859.859,0,0,0,.616-.272,2.011,2.011,0,0,0,.129-.946V32.491a1.95,1.95,0,0,0-.143-.975.844.844,0,0,0-.6-.244V31h2.8Z" transform="translate(675.699 17693.441)" fill="#fff"/>
    <path id="Path_48" data-name="Path 48" d="M181.416,38.2h-3.527l-.416.975a2.037,2.037,0,0,0-.2.8.665.665,0,0,0,.344.616,2.765,2.765,0,0,0,.975.172v.272H175.28v-.272a1.551,1.551,0,0,0,.889-.444,5.762,5.762,0,0,0,.846-1.505l3.57-7.956h.143l3.6,8.171a5.123,5.123,0,0,0,.846,1.462,1.071,1.071,0,0,0,.7.258v.272h-4.817v-.272h.2a1.6,1.6,0,0,0,.817-.158.366.366,0,0,0,.158-.344.636.636,0,0,0-.043-.272,4.883,4.883,0,0,0-.215-.545l-.53-1.247Zm-.244-.545-1.491-3.426-1.534,3.426h3.011Z" transform="translate(679.006 17693.381)" fill="#fff"/>
    <path id="Path_49" data-name="Path 49" d="M187.308,33.311h2.322v.8h-1.319a2.584,2.584,0,0,1,.5.659,2.176,2.176,0,0,1-.229,2.107,2.745,2.745,0,0,1-1.1.846,3.266,3.266,0,0,1-1.247.3c-.029,0-.33,0-.889-.043a.8.8,0,0,0-.559.215.666.666,0,0,0-.229.516.558.558,0,0,0,.2.43,1.01,1.01,0,0,0,.659.172h1.276a4.392,4.392,0,0,1,2.122.33,1.539,1.539,0,0,1,.831,1.448,1.836,1.836,0,0,1-.387,1.133,2.316,2.316,0,0,1-1,.76,6.041,6.041,0,0,1-2.179.358,7.769,7.769,0,0,1-1.692-.172,2.206,2.206,0,0,1-1.09-.5.972.972,0,0,1-.33-.674.825.825,0,0,1,.258-.6,2.217,2.217,0,0,1,.946-.459,1.456,1.456,0,0,1-.961-1.3,1.573,1.573,0,0,1,.387-.989,3.09,3.09,0,0,1,1.233-.831,3.134,3.134,0,0,1-1.434-.946,2.157,2.157,0,0,1-.444-1.362,2.3,2.3,0,0,1,.817-1.749,3.02,3.02,0,0,1,2.122-.745,3.844,3.844,0,0,1,1.4.287Zm-1.706,7.8a2.426,2.426,0,0,0-.989.129.679.679,0,0,0-.416.616.826.826,0,0,0,.43.674,3.081,3.081,0,0,0,1.634.3,3.809,3.809,0,0,0,1.606-.272.849.849,0,0,0,.588-.76.411.411,0,0,0-.115-.3,1.087,1.087,0,0,0-.6-.3A14.811,14.811,0,0,0,185.6,41.11Zm.43-7.641a.837.837,0,0,0-.717.43,3.459,3.459,0,0,0-.3,1.778,2.845,2.845,0,0,0,.287,1.505.809.809,0,0,0,.688.4.843.843,0,0,0,.731-.4,2.843,2.843,0,0,0,.3-1.577,3.447,3.447,0,0,0-.33-1.792.763.763,0,0,0-.659-.358Z" transform="translate(682.332 17694.313)" fill="#fff"/>
    <path id="Path_50" data-name="Path 50" d="M193.759,36.418h-3.77a3.526,3.526,0,0,0,.731,2.165,1.569,1.569,0,0,0,1.219.616,1.432,1.432,0,0,0,.8-.244,2.914,2.914,0,0,0,.774-.889l.244.158a4.07,4.07,0,0,1-1.233,1.606,2.651,2.651,0,0,1-1.563.473,2.617,2.617,0,0,1-2.322-1.176,4.2,4.2,0,0,1-.631-2.351,3.912,3.912,0,0,1,.932-2.738,2.878,2.878,0,0,1,2.179-1.018,2.342,2.342,0,0,1,1.806.86,3.915,3.915,0,0,1,.831,2.537Zm-1.806-.487a6.672,6.672,0,0,0-.129-1.62,1.371,1.371,0,0,0-.4-.674.627.627,0,0,0-.416-.129.752.752,0,0,0-.631.373,3.217,3.217,0,0,0-.43,1.792v.258h1.993Z" transform="translate(684.527 17694.316)" fill="#fff"/>
    <path id="Path_51" data-name="Path 51" d="M195.205,33.221v.889a3.877,3.877,0,0,1,1.018-.831,2.217,2.217,0,0,1,1.047-.258,1.658,1.658,0,0,1,1.1.373,1.757,1.757,0,0,1,.588.917,7.644,7.644,0,0,1,.115,1.606V38.6a1.982,1.982,0,0,0,.143.989.845.845,0,0,0,.6.244v.258h-3.469V39.83a.711.711,0,0,0,.559-.33,2.246,2.246,0,0,0,.115-.917V35.529a4.07,4.07,0,0,0-.072-1.061.64.64,0,0,0-.229-.344.5.5,0,0,0-.344-.115c-.416,0-.817.3-1.176.9V38.6a1.95,1.95,0,0,0,.143.975.748.748,0,0,0,.53.258v.258H192.41V39.83a.859.859,0,0,0,.616-.272,2.044,2.044,0,0,0,.129-.961V34.712a1.95,1.95,0,0,0-.143-.975.844.844,0,0,0-.6-.244v-.272h2.8Z" transform="translate(686.435 17694.316)" fill="#fff"/>
    <path id="Path_52" data-name="Path 52" d="M203.619,38.324l.229.172a3.638,3.638,0,0,1-1.2,1.362,2.843,2.843,0,0,1-1.534.444,2.653,2.653,0,0,1-2.193-1.032,3.9,3.9,0,0,1-.817-2.494,4.056,4.056,0,0,1,.746-2.466,2.88,2.88,0,0,1,2.494-1.29,2.427,2.427,0,0,1,1.692.545,1.576,1.576,0,0,1,.631,1.19.9.9,0,0,1-.258.674.876.876,0,0,1-.659.244.984.984,0,0,1-.717-.287,1.657,1.657,0,0,1-.344-1.018,1.057,1.057,0,0,0-.215-.645.557.557,0,0,0-.4-.186.744.744,0,0,0-.6.373,3.107,3.107,0,0,0-.387,1.735,5.336,5.336,0,0,0,.315,1.849,2.81,2.81,0,0,0,.846,1.319,1.489,1.489,0,0,0,.96.315,1.441,1.441,0,0,0,.688-.172,3.068,3.068,0,0,0,.76-.645Z" transform="translate(688.902 17694.316)" fill="#fff"/>
    <path id="Path_53" data-name="Path 53" d="M205.961,40.314l-2.222-5.089a5.642,5.642,0,0,0-.745-1.419,1.373,1.373,0,0,0-.573-.373V33.16h3.656v.272a.721.721,0,0,0-.5.143.379.379,0,0,0-.143.3,3.636,3.636,0,0,0,.373,1.1l1.176,2.7.8-2.079a5.311,5.311,0,0,0,.43-1.548.508.508,0,0,0-.186-.43,1,1,0,0,0-.631-.172v-.272h2.294v.272a.852.852,0,0,0-.545.258,6.789,6.789,0,0,0-.717,1.52l-1.964,5.089a11.062,11.062,0,0,1-1.1,2.351,1.574,1.574,0,0,1-1.276.616,1.433,1.433,0,0,1-.989-.344,1.081,1.081,0,0,1-.373-.846.988.988,0,0,1,.258-.7.848.848,0,0,1,.645-.287.737.737,0,0,1,.588.229,1.061,1.061,0,0,1,.229.731.636.636,0,0,0,.072.358.2.2,0,0,0,.172.086.539.539,0,0,0,.373-.215,4.265,4.265,0,0,0,.688-1.4l.215-.573Z" transform="translate(690.775 17694.379)" fill="#fff"/>
    <path id="Path_54" data-name="Path 54" d="M67.788,20.058,66.14,16.273l-1.692,3.785h3.326Zm.272.6H64.176l-.459,1.075a2.313,2.313,0,0,0-.229.889.722.722,0,0,0,.373.674,3.051,3.051,0,0,0,1.075.2v.3H61.28v-.3a1.591,1.591,0,0,0,.975-.487,6.359,6.359,0,0,0,.946-1.663l3.928-8.788h.158l3.971,9.032a5.442,5.442,0,0,0,.932,1.62,1.268,1.268,0,0,0,.774.3v.3H67.645v-.3h.215a1.57,1.57,0,0,0,.9-.186.443.443,0,0,0,.172-.373,1.091,1.091,0,0,0-.043-.3,4.225,4.225,0,0,0-.244-.6l-.588-1.376Z" transform="translate(629.578 17685.445)" fill="#fff"/>
    <path id="Path_55" data-name="Path 55" d="M76.373,15.1v5.935a2.348,2.348,0,0,0,.158,1.09.946.946,0,0,0,.659.272v.3h-3.1V21.68a4.016,4.016,0,0,1-1.09.946,2.633,2.633,0,0,1-1.219.287,1.818,1.818,0,0,1-1.147-.387,1.841,1.841,0,0,1-.659-.917,6.645,6.645,0,0,1-.172-1.835V16.763a2.274,2.274,0,0,0-.158-1.075.946.946,0,0,0-.659-.272v-.3h3.1V20.3a4.905,4.905,0,0,0,.072,1.047.729.729,0,0,0,.244.358.629.629,0,0,0,.387.129,1,1,0,0,0,.53-.158,3.409,3.409,0,0,0,.774-.86V16.763a2.274,2.274,0,0,0-.158-1.075.916.916,0,0,0-.659-.272v-.3h3.1Z" transform="translate(632.921 17686.549)" fill="#fff"/>
    <path id="Path_56" data-name="Path 56" d="M79.847,14.95l.129,2.595H79.7a4.028,4.028,0,0,0-1.032-1.577,1.686,1.686,0,0,0-1.061-.43.79.79,0,0,0-.573.229.681.681,0,0,0-.244.516.758.758,0,0,0,.158.43A7.783,7.783,0,0,0,78.4,17.86a5.824,5.824,0,0,1,1.563,1.376,2.154,2.154,0,0,1,.387,1.262,2.683,2.683,0,0,1-.315,1.247,2.231,2.231,0,0,1-.889.932,2.562,2.562,0,0,1-1.276.33,4.364,4.364,0,0,1-1.448-.344,1.212,1.212,0,0,0-.33-.086c-.172,0-.33.143-.444.416h-.272l-.129-2.724h.272a3.478,3.478,0,0,0,1,1.606,1.956,1.956,0,0,0,1.2.545.856.856,0,0,0,.631-.229A.78.78,0,0,0,78.6,21.6a1.023,1.023,0,0,0-.244-.674,6.665,6.665,0,0,0-1.09-.86,8.431,8.431,0,0,1-1.606-1.319,2.27,2.27,0,0,1-.53-1.462,2.4,2.4,0,0,1,.6-1.591,2.177,2.177,0,0,1,1.749-.717,2.528,2.528,0,0,1,1.19.3.728.728,0,0,0,.358.129.489.489,0,0,0,.229-.057,1.7,1.7,0,0,0,.287-.344h.272Z" transform="translate(635.584 17686.48)" fill="#fff"/>
    <path id="Path_57" data-name="Path 57" d="M82.209,13.164v2.767h1.806v.8H82.209v4.688a3.768,3.768,0,0,0,.057.86.585.585,0,0,0,.215.3.526.526,0,0,0,.287.115c.358,0,.688-.272,1-.8l.244.172a2.235,2.235,0,0,1-2.136,1.563,1.9,1.9,0,0,1-1.233-.4,1.776,1.776,0,0,1-.631-.9,7.279,7.279,0,0,1-.086-1.491v-4.1H78.94v-.287a10.2,10.2,0,0,0,1.735-1.52,8.838,8.838,0,0,0,1.262-1.778h.272Z" transform="translate(637.235 17685.705)" fill="#fff"/>
    <path id="Path_58" data-name="Path 58" d="M86.005,15.169v1.72a5.588,5.588,0,0,1,1.319-1.563,1.942,1.942,0,0,1,1.09-.387.939.939,0,0,1,.717.287,1.056,1.056,0,0,1,.272.788,1.2,1.2,0,0,1-.272.846.807.807,0,0,1-.631.3,1.089,1.089,0,0,1-.745-.272,2.554,2.554,0,0,0-.373-.3.4.4,0,0,0-.186-.043.643.643,0,0,0-.444.186,1.634,1.634,0,0,0-.5.788,5.573,5.573,0,0,0-.258,1.735v2.208a1.542,1.542,0,0,0,.072.588.721.721,0,0,0,.287.33,1.57,1.57,0,0,0,.645.129v.3h-4.1v-.3a.862.862,0,0,0,.659-.272A2.523,2.523,0,0,0,83.74,21V16.8a3.077,3.077,0,0,0-.072-.831.647.647,0,0,0-.244-.33,1.265,1.265,0,0,0-.545-.143v-.3h3.1Z" transform="translate(638.944 17686.479)" fill="#fff"/>
    <path id="Path_59" data-name="Path 59" d="M91.565,21.043V18.505A4.605,4.605,0,0,0,90.1,19.738a1.5,1.5,0,0,0-.315.889.91.91,0,0,0,.272.659.706.706,0,0,0,.573.229,1.59,1.59,0,0,0,.946-.459m0,.6a3.985,3.985,0,0,1-2.494,1.219,1.505,1.505,0,0,1-1.075-.416,1.459,1.459,0,0,1-.43-1.075,2.079,2.079,0,0,1,.745-1.563,14.8,14.8,0,0,1,3.254-1.849v-.76a3.216,3.216,0,0,0-.1-1.075.744.744,0,0,0-.344-.387,1.046,1.046,0,0,0-.588-.172,1.5,1.5,0,0,0-.874.229.424.424,0,0,0-.215.344.643.643,0,0,0,.229.416,1.048,1.048,0,0,1,.3.674.872.872,0,0,1-.3.674,1.1,1.1,0,0,1-.774.287,1.2,1.2,0,0,1-.86-.315.93.93,0,0,1-.344-.717,1.732,1.732,0,0,1,.459-1.118,2.944,2.944,0,0,1,1.29-.817,5.282,5.282,0,0,1,1.72-.287,2.867,2.867,0,0,1,1.706.459,2.079,2.079,0,0,1,.817.989,6.617,6.617,0,0,1,.115,1.563V20.9a2.248,2.248,0,0,0,.043.659.364.364,0,0,0,.129.186.3.3,0,0,0,.186.072q.215,0,.43-.3l.244.2a3.093,3.093,0,0,1-.846.874,1.77,1.77,0,0,1-.989.272,1.566,1.566,0,0,1-1.018-.3,1.4,1.4,0,0,1-.444-.917" transform="translate(640.982 17686.48)" fill="#fff"/>
    <path id="Path_60" data-name="Path 60" d="M95.923,12.72v9.433a1.792,1.792,0,0,0,.186,1.032,1.09,1.09,0,0,0,.731.258v.3h-4.1v-.3a.991.991,0,0,0,.745-.287,1.749,1.749,0,0,0,.158-.989V14.311a1.736,1.736,0,0,0-.186-1.018,1.01,1.01,0,0,0-.717-.258v-.3h3.183Z" transform="translate(643.219 17685.518)" fill="#fff"/>
    <path id="Path_61" data-name="Path 61" d="M99.143,16.214v6.021a1.792,1.792,0,0,0,.186,1.032,1.091,1.091,0,0,0,.731.258v.3h-4.1v-.3a.991.991,0,0,0,.745-.287,1.749,1.749,0,0,0,.158-.989V17.82a1.735,1.735,0,0,0-.186-1.018.927.927,0,0,0-.717-.258v-.3h3.183ZM98.01,12.53a1.224,1.224,0,0,1,.889.373,1.189,1.189,0,0,1,.358.889,1.169,1.169,0,0,1-.373.874,1.247,1.247,0,0,1-2.136-.874A1.248,1.248,0,0,1,98,12.53" transform="translate(644.616 17685.434)" fill="#fff"/>
    <path id="Path_62" data-name="Path 62" d="M103.115,21.043V18.505a4.605,4.605,0,0,0-1.462,1.233,1.5,1.5,0,0,0-.315.889.91.91,0,0,0,.272.659.706.706,0,0,0,.573.229,1.59,1.59,0,0,0,.946-.459m0,.6a4.018,4.018,0,0,1-2.494,1.219,1.505,1.505,0,0,1-1.075-.416,1.459,1.459,0,0,1-.43-1.075,2.079,2.079,0,0,1,.745-1.563,14.447,14.447,0,0,1,3.254-1.849v-.76a3.216,3.216,0,0,0-.1-1.075.744.744,0,0,0-.344-.387,1.046,1.046,0,0,0-.588-.172,1.5,1.5,0,0,0-.874.229.424.424,0,0,0-.215.344.643.643,0,0,0,.229.416,1.073,1.073,0,0,1,.315.674.872.872,0,0,1-.3.674,1.1,1.1,0,0,1-.774.287,1.2,1.2,0,0,1-.86-.315.93.93,0,0,1-.344-.717,1.732,1.732,0,0,1,.459-1.118,2.786,2.786,0,0,1,1.29-.817,5.347,5.347,0,0,1,1.72-.287,2.867,2.867,0,0,1,1.706.459,2,2,0,0,1,.817.989,6.617,6.617,0,0,1,.115,1.563V20.9a2.249,2.249,0,0,0,.043.659.461.461,0,0,0,.115.186.3.3,0,0,0,.186.072q.215,0,.43-.3l.244.2a3.093,3.093,0,0,1-.846.874,1.77,1.77,0,0,1-.989.272,1.566,1.566,0,0,1-1.018-.3,1.4,1.4,0,0,1-.444-.917" transform="translate(645.99 17686.48)" fill="#fff"/>
    <path id="Path_63" data-name="Path 63" d="M107.421,15.169v.989a4.38,4.38,0,0,1,1.118-.918,2.338,2.338,0,0,1,1.161-.3,1.819,1.819,0,0,1,1.219.416,1.84,1.84,0,0,1,.645,1.018,7.874,7.874,0,0,1,.129,1.778V21.1a2.425,2.425,0,0,0,.158,1.1.946.946,0,0,0,.659.272v.3h-3.842v-.3a.824.824,0,0,0,.616-.358,2.324,2.324,0,0,0,.129-1V17.736a5.991,5.991,0,0,0-.072-1.176.684.684,0,0,0-.244-.373.565.565,0,0,0-.387-.143c-.473,0-.9.33-1.3.989V21.1a2.1,2.1,0,0,0,.158,1.075.822.822,0,0,0,.588.287v.3H104.31v-.3a1.1,1.1,0,0,0,.688-.3,2.341,2.341,0,0,0,.143-1.061V16.818a2.274,2.274,0,0,0-.158-1.075.916.916,0,0,0-.659-.272v-.3h3.1Z" transform="translate(648.235 17686.479)" fill="#fff"/>
    <path id="Path_64" data-name="Path 64" d="M123.735,12.549v3.871h-.3A4.926,4.926,0,0,0,121.8,14a3.819,3.819,0,0,0-2.38-.831,2.944,2.944,0,0,0-2.05.7,3.751,3.751,0,0,0-1.161,1.935,10.1,10.1,0,0,0,.029,5.333,3.136,3.136,0,0,0,1.2,1.749,3.483,3.483,0,0,0,1.978.559,4.062,4.062,0,0,0,.817-.086,6.445,6.445,0,0,0,.86-.244V20.821a2.588,2.588,0,0,0-.086-.846.8.8,0,0,0-.373-.344,1.418,1.418,0,0,0-.674-.158h-.287v-.3h5.347v.3a2.47,2.47,0,0,0-.86.172.8.8,0,0,0-.358.416,2.1,2.1,0,0,0-.072.76v2.294a10.577,10.577,0,0,1-2.193.7,11.61,11.61,0,0,1-2.365.244,6.845,6.845,0,0,1-2.609-.43,6.473,6.473,0,0,1-1.821-1.118,5.192,5.192,0,0,1-1.806-4.071,5.693,5.693,0,0,1,1.749-4.2,5.987,5.987,0,0,1,4.387-1.72,7.757,7.757,0,0,1,1.477.129,8.177,8.177,0,0,1,1.161.373,4.732,4.732,0,0,0,.946.3.653.653,0,0,0,.416-.158,1.488,1.488,0,0,0,.358-.631h.3Z" transform="translate(651.978 17685.43)" fill="#fff"/>
    <path id="Path_65" data-name="Path 65" d="M125.244,15.518a.948.948,0,0,0-.717.315,2.245,2.245,0,0,0-.387,1.233c-.057.616-.086,1.462-.086,2.566a9.682,9.682,0,0,0,.115,1.62,1.5,1.5,0,0,0,.387.874.887.887,0,0,0,.659.3.913.913,0,0,0,.616-.2,1.359,1.359,0,0,0,.416-.774,18.223,18.223,0,0,0,.158-3.125,7.769,7.769,0,0,0-.158-1.892,1.464,1.464,0,0,0-.459-.76.868.868,0,0,0-.559-.172m-.029-.573a3.533,3.533,0,0,1,1.849.516,3.173,3.173,0,0,1,1.29,1.448,4.726,4.726,0,0,1,.444,2.064,4.336,4.336,0,0,1-.817,2.7,3.25,3.25,0,0,1-2.738,1.319,3.1,3.1,0,0,1-2.638-1.2,4.456,4.456,0,0,1-.932-2.781,4.544,4.544,0,0,1,.946-2.839A3.125,3.125,0,0,1,125.2,14.93" transform="translate(655.759 17686.475)" fill="#fff"/>
    <path id="Path_66" data-name="Path 66" d="M130.3,22.917l-2.552-5.878a5.926,5.926,0,0,0-.717-1.348,1.04,1.04,0,0,0-.559-.287v-.3H130.5v.3a.773.773,0,0,0-.516.129.537.537,0,0,0-.186.416,3.554,3.554,0,0,0,.358,1.133l1.247,2.853,1-2.466a4.773,4.773,0,0,0,.43-1.491.516.516,0,0,0-.186-.416.916.916,0,0,0-.645-.172v-.3h2.48v.3a.978.978,0,0,0-.588.272,5,5,0,0,0-.688,1.29l-2.537,5.964h-.387Z" transform="translate(657.845 17686.541)" fill="#fff"/>
    <path id="Path_67" data-name="Path 67" d="M136.134,18.151a7.087,7.087,0,0,0-.143-1.792,1.4,1.4,0,0,0-.43-.731.677.677,0,0,0-.459-.143.763.763,0,0,0-.688.416,3.607,3.607,0,0,0-.473,1.978v.287h2.208Zm1.993.545h-4.157a3.923,3.923,0,0,0,.8,2.394,1.7,1.7,0,0,0,1.348.674,1.545,1.545,0,0,0,.889-.272,3.637,3.637,0,0,0,.86-.989l.272.186a4.773,4.773,0,0,1-1.362,1.792,2.982,2.982,0,0,1-1.735.516,2.858,2.858,0,0,1-2.552-1.3,4.527,4.527,0,0,1-.7-2.595,4.362,4.362,0,0,1,1.018-3.025,3.151,3.151,0,0,1,2.408-1.133,2.573,2.573,0,0,1,1.993.946,4.231,4.231,0,0,1,.918,2.8" transform="translate(660.151 17686.479)" fill="#fff"/>
    <path id="Path_68" data-name="Path 68" d="M139.675,15.169v1.72a5.588,5.588,0,0,1,1.319-1.563,1.942,1.942,0,0,1,1.09-.387.939.939,0,0,1,.717.287,1.056,1.056,0,0,1,.272.788,1.2,1.2,0,0,1-.272.846.807.807,0,0,1-.631.3,1.089,1.089,0,0,1-.745-.272,2.554,2.554,0,0,0-.373-.3.4.4,0,0,0-.186-.043.643.643,0,0,0-.444.186,1.744,1.744,0,0,0-.5.788,5.572,5.572,0,0,0-.258,1.735v2.208a2.113,2.113,0,0,0,.057.588.721.721,0,0,0,.287.33,1.57,1.57,0,0,0,.645.129v.3h-4.1v-.3a.838.838,0,0,0,.659-.272A2.586,2.586,0,0,0,137.381,21V16.8a3.319,3.319,0,0,0-.057-.831.626.626,0,0,0-.229-.33,1.265,1.265,0,0,0-.545-.143v-.3h3.1Z" transform="translate(662.214 17686.479)" fill="#fff"/>
    <path id="Path_69" data-name="Path 69" d="M144.56,15.169v.989a4.381,4.381,0,0,1,1.118-.918,2.324,2.324,0,0,1,1.147-.3,1.819,1.819,0,0,1,1.219.416,1.84,1.84,0,0,1,.645,1.018,7.871,7.871,0,0,1,.129,1.778V21.1a2.235,2.235,0,0,0,.158,1.1.978.978,0,0,0,.659.272v.3h-3.842v-.3a.824.824,0,0,0,.616-.358,2.324,2.324,0,0,0,.129-1V17.736a5.994,5.994,0,0,0-.072-1.176.635.635,0,0,0-.258-.373.565.565,0,0,0-.387-.143c-.473,0-.9.33-1.3.989V21.1a2.274,2.274,0,0,0,.158,1.075.793.793,0,0,0,.588.287v.3H141.42v-.3a1.1,1.1,0,0,0,.688-.3,2.341,2.341,0,0,0,.143-1.061V16.818a2.274,2.274,0,0,0-.158-1.075.916.916,0,0,0-.659-.272v-.3h3.1Z" transform="translate(664.326 17686.479)" fill="#fff"/>
    <path id="Path_70" data-name="Path 70" d="M150.682,15.169v1a4.171,4.171,0,0,1,1.147-.946,2.474,2.474,0,0,1,1.161-.272,2.15,2.15,0,0,1,1.233.344,2.126,2.126,0,0,1,.76,1.032,5.017,5.017,0,0,1,1.247-1.061,2.617,2.617,0,0,1,1.247-.33,1.958,1.958,0,0,1,1.247.373,1.747,1.747,0,0,1,.645.918,5.891,5.891,0,0,1,.186,1.763V21.1a2.306,2.306,0,0,0,.158,1.09.946.946,0,0,0,.659.272v.3h-3.928v-.3a.863.863,0,0,0,.688-.358,2.13,2.13,0,0,0,.143-1V17.85a5.751,5.751,0,0,0-.086-1.29.755.755,0,0,0-.258-.4.652.652,0,0,0-.4-.143,1.182,1.182,0,0,0-.7.258,2.836,2.836,0,0,0-.717.76V21.1a2.2,2.2,0,0,0,.143,1.032.822.822,0,0,0,.717.33v.3h-3.928v-.3a.87.87,0,0,0,.5-.158.7.7,0,0,0,.244-.344,3.605,3.605,0,0,0,.057-.86V17.85a5.578,5.578,0,0,0-.086-1.29.678.678,0,0,0-.272-.4.627.627,0,0,0-.4-.143,1.046,1.046,0,0,0-.588.172,3.4,3.4,0,0,0-.817.86v4.071a2.369,2.369,0,0,0,.158,1.061.834.834,0,0,0,.674.3v.3H147.6v-.3a1.024,1.024,0,0,0,.674-.3,2.341,2.341,0,0,0,.143-1.061V16.832a2.274,2.274,0,0,0-.158-1.075.916.916,0,0,0-.659-.272v-.3h3.1Z" transform="translate(667.006 17686.479)" fill="#fff"/>
    <path id="Path_71" data-name="Path 71" d="M161.154,18.151a7.087,7.087,0,0,0-.143-1.792,1.33,1.33,0,0,0-.444-.731.677.677,0,0,0-.459-.143.763.763,0,0,0-.688.416,3.607,3.607,0,0,0-.473,1.978v.287h2.208Zm1.993.545h-4.157a3.923,3.923,0,0,0,.8,2.394,1.7,1.7,0,0,0,1.348.674,1.514,1.514,0,0,0,.889-.272,3.637,3.637,0,0,0,.86-.989l.272.186a4.773,4.773,0,0,1-1.362,1.792,2.982,2.982,0,0,1-1.735.516,2.842,2.842,0,0,1-2.552-1.3,4.639,4.639,0,0,1-.7-2.595,4.361,4.361,0,0,1,1.018-3.025,3.151,3.151,0,0,1,2.408-1.133,2.573,2.573,0,0,1,1.993.946,4.231,4.231,0,0,1,.917,2.8" transform="translate(671 17686.479)" fill="#fff"/>
    <path id="Path_72" data-name="Path 72" d="M164.527,15.169v.989a4.38,4.38,0,0,1,1.118-.918,2.324,2.324,0,0,1,1.147-.3,1.819,1.819,0,0,1,1.219.416,1.841,1.841,0,0,1,.645,1.018,7.877,7.877,0,0,1,.129,1.778V21.1a2.235,2.235,0,0,0,.158,1.1.946.946,0,0,0,.659.272v.3h-3.828v-.3a.824.824,0,0,0,.616-.358,2.324,2.324,0,0,0,.129-1V17.736a5.992,5.992,0,0,0-.072-1.176.684.684,0,0,0-.244-.373.565.565,0,0,0-.387-.143c-.473,0-.9.33-1.3.989V21.1a2.274,2.274,0,0,0,.158,1.075.828.828,0,0,0,.6.287v.3H161.43v-.3a1.024,1.024,0,0,0,.674-.3,2.341,2.341,0,0,0,.143-1.061V16.818a2.274,2.274,0,0,0-.158-1.075.946.946,0,0,0-.659-.272v-.3h3.1Z" transform="translate(673.003 17686.479)" fill="#fff"/>
    <path id="Path_73" data-name="Path 73" d="M170.393,13.164v2.767H172.2v.8h-1.806v4.688a4.888,4.888,0,0,0,.057.86.585.585,0,0,0,.215.3.526.526,0,0,0,.287.115c.344,0,.674-.272.989-.8l.244.172a2.235,2.235,0,0,1-2.136,1.563,1.837,1.837,0,0,1-1.219-.4,1.9,1.9,0,0,1-.645-.9,8.6,8.6,0,0,1-.086-1.491v-4.1h-.989v-.287a10.781,10.781,0,0,0,1.735-1.52,8.837,8.837,0,0,0,1.262-1.778h.272Z" transform="translate(675.465 17685.705)" fill="#fff"/>
    <path id="Path_74" data-name="Path 74" d="M19.155,33.27a.448.448,0,0,1-.215.215" transform="translate(611.22 17694.426)" fill="#fff"/>
    <path id="Path_75" data-name="Path 75" d="M20.541,23.143a.4.4,0,0,0,.4-.4.4.4,0,0,0-.8,0,.4.4,0,0,0,.4.4" transform="translate(611.739 17689.686)" fill="#fff"/>
    <path id="Path_76" data-name="Path 76" d="M37.195,19.261H32.836V11.577h4.358Zm0,3.641a2.437,2.437,0,0,1-.932,1.907l-3.426,2.05V19.648h4.358Zm-4.745-3.641H28.421V11.577h4.028Zm0,7.842-1.577.946h-.029a.694.694,0,0,1-.416.143.625.625,0,0,1-.416-.158L28.435,27.1v-7.44h4.028V27.1ZM26.8,16.451h1.233v2.81H26.8v-2.81Zm1.233,10.408-3.426-2.05a2.437,2.437,0,0,1-.932-1.907V19.648h4.358ZM25.181,14.53H23.676V11.563h1.505Zm.373-1.849.172-.186-.115-.2.229.029.143-.244.129.244.244-.029-.115.2.172.186-.229.043v.258l-.215-.158-.215.158v-.258l-.229-.043Zm1.061,3.1c0-.072-.115-.1-.158-.1-.129,0-.186.229-.3.229-.086,0-.143,0-.143-.086s.172-.129.229-.2c-.932,0-.946.416-1.09.416-.244,0,.2-.444.33-.573-.186-.029-.3-.258-.5-.373.1-.143.143-.072.272.014,0-.1.072-.215.287-.215.416,0,.3.4.373.4s0-.4.272-.4c.416,0,.932,1.061.459,1.061-.2,0-.043-.143-.043-.172m-1,2.265.229.029.143-.244.129.244.244-.029-.115.2.172.186-.229.043v.258l-.215-.158-.215.158v-.258l-.229-.043.172-.186-.115-.2ZM23.905,15.19l.229.029.143-.244.143.244h.229l-.115.172.172.186-.229.043v.244l-.215-.158-.215.158V15.62l-.229-.043.172-.186-.115-.2Zm-.244,1.262h1.505v2.81H23.661v-2.81Zm3.455-.874.172-.186-.115-.2.229.029.143-.244.129.244H27.9l-.115.172.172.186-.229.043v.244l-.215-.158-.215.158V15.62l-.229-.043Zm.9-1.032H26.787V11.577H28.02Zm9.562-3.34H23.26V22.773a2.645,2.645,0,0,0,1.133,2.394L29.9,28.45a.641.641,0,0,0,.5.229.683.683,0,0,0,.444-.172l5.591-3.34a2.645,2.645,0,0,0,1.133-2.394V11.19h0Z" transform="translate(613.093 17684.852)" fill="#fff"/>
    <path id="Path_77" data-name="Path 77" d="M27.623,19.634s-.545.172-.4.158a1.519,1.519,0,0,1,.43-.588c-.029-.186-.258-.014-.5.115.817-1.161.287-.688-.158-.6.731-.774.53-.76,0-.53.416-.33.516-.731.444-.846-.4.53-.76.444-.76.932A1.942,1.942,0,0,1,26.39,19.3c-.215.229-.043-.86-.6-.86-.186,0-.6-.014-.731.2.115,0,.287.287.287.4s.1.43-.086.43-.416-.4-.416-.588v-.43a1.578,1.578,0,0,0-1.061-1.118c0,.315.416.4.416.817-.172,0-.43-.33-.43-.129s.272.244.272.416-.3-.057-.3.129.172.143.2.315c-.129-.029-.229-.014-.258.043s.029.129.129.186c-.043.043-.086.129-.086.416,0,.9.573,1.333.989,1.333.3,0,.244-.215.287-.315,0,.158.158-.072.158.2s-.287.158-.287.4c0,.33.459,0,.459.358a3.881,3.881,0,0,1-.057.588c0,.115.487-.158.444-.215.115.043.115.387.33.373.143,0,.172-.344.272-.373-.057.014.43.33.43.172,0-.43-.172-.244-.172-.545,0-.272.588-.215.5-.358-.072-.115-.129-.043-.2-.244,0,.043-.459-.674.1-.3.588.387.659-.9.631-.961" transform="translate(613.273 17687.52)" fill="#fff"/>
    <path id="Path_78" data-name="Path 78" d="M37.233,21.3a.419.419,0,1,0-.473-.416.449.449,0,0,0,.473.416" transform="translate(618.945 17688.877)" fill="#fff"/>
    <path id="Path_79" data-name="Path 79" d="M35.9,22.091a.419.419,0,1,0-.473-.416.449.449,0,0,0,.473.416" transform="translate(618.369 17689.217)" fill="#fff"/>
    <path id="Path_80" data-name="Path 80" d="M20.113,23.911a.419.419,0,1,0-.473-.416.449.449,0,0,0,.473.416" transform="translate(611.522 17690.006)" fill="#fff"/>
    <path id="Path_81" data-name="Path 81" d="M21.133,24a.419.419,0,1,0-.473-.416.449.449,0,0,0,.473.416" transform="translate(611.966 17690.049)" fill="#fff"/>
    <path id="Path_82" data-name="Path 82" d="M49.591,10.156a2.98,2.98,0,0,1,.358,3.125c-.272-.029-.229-.373-.272-.573a3.764,3.764,0,0,1-.459-3.168c.33.057.2.444.373.631" transform="translate(624.265 17684.135)" fill="#fff"/>
    <path id="Path_83" data-name="Path 83" d="M8.014,11.138a4.669,4.669,0,0,0,0,1.993c-.129.129-.1-.129-.229-.1-.975-.7-.53-2.079-.774-3.068a.179.179,0,0,1,.244-.043A1.812,1.812,0,0,1,8,11.152" transform="translate(606.047 17684.287)" fill="#fff"/>
    <path id="Path_84" data-name="Path 84" d="M51.216,10.889c.143.272-.129.559-.33.674a.642.642,0,0,1-.631-.272.588.588,0,0,1,.3-.659.649.649,0,0,1,.645.258" transform="translate(624.789 17684.607)" fill="#fff"/>
    <path id="Path_85" data-name="Path 85" d="M6.92,11.68a.812.812,0,0,1-.315.559c-.143,0-.373,0-.473-.129a.484.484,0,0,1-.1-.53A.6.6,0,0,1,6.5,11.35a.662.662,0,0,1,.43.33" transform="translate(605.607 17684.92)" fill="#fff"/>
    <path id="Path_86" data-name="Path 86" d="M51.886,11.958a.64.64,0,0,1,0,.4.566.566,0,0,1-.674.229.644.644,0,0,1-.272-.43.843.843,0,0,1,.43-.459.815.815,0,0,1,.53.258" transform="translate(625.094 17685.072)" fill="#fff"/>
    <path id="Path_87" data-name="Path 87" d="M50.861,11.938c.2.1.043.358.029.5-.129.129-.3.33-.53.258-.129-.129-.272-.129-.33-.3a.557.557,0,0,1,.344-.573.6.6,0,0,1,.473.129" transform="translate(624.7 17685.123)" fill="#fff"/>
    <path id="Path_88" data-name="Path 88" d="M49.606,12.242c0,.287.029.631-.3.688a.475.475,0,0,1-.573-.358.6.6,0,0,1,.373-.6.708.708,0,0,1,.5.272" transform="translate(624.136 17685.189)" fill="#fff"/>
    <path id="Path_89" data-name="Path 89" d="M8.806,12.351c.072.244-.172.4-.315.53-.172.057-.4-.1-.5-.287-.172-.172.057-.315.1-.473a.46.46,0,0,1,.717.229" transform="translate(606.443 17685.211)" fill="#fff"/>
    <path id="Path_90" data-name="Path 90" d="M7.748,12.407a.5.5,0,0,1-.272.473.452.452,0,0,1-.5-.229.421.421,0,0,1,.229-.573c.272-.1.444.143.545.33" transform="translate(606.01 17685.227)" fill="#fff"/>
    <path id="Path_91" data-name="Path 91" d="M45.294,12.475a5.608,5.608,0,0,1,.5,1.806c-.1.473.072,1.1-.272,1.434-.358-.129-.373-.559-.6-.774-.444-.874-.043-1.907.1-2.767.2-.072.2.186.272.3" transform="translate(622.396 17685.273)" fill="#fff"/>
    <path id="Path_92" data-name="Path 92" d="M6.972,12.681c.072.3-.158.459-.33.631a.605.605,0,0,1-.631-.358.632.632,0,0,1,.33-.6.639.639,0,0,1,.631.33" transform="translate(605.612 17685.354)" fill="#fff"/>
    <path id="Path_93" data-name="Path 93" d="M48.191,13.382A3.679,3.679,0,0,1,48.32,15.8l-.158.129A10.455,10.455,0,0,1,47.13,13.9a3.334,3.334,0,0,1,.3-1.434c.172-.129.272.029.344.172a.918.918,0,0,0,.4.745" transform="translate(623.442 17685.383)" fill="#fff"/>
    <path id="Path_94" data-name="Path 94" d="M50.362,12.886a.647.647,0,0,1-.373.6.446.446,0,0,1-.573-.3.54.54,0,0,1,.272-.6c.272-.158.545.1.674.3" transform="translate(624.425 17685.436)" fill="#fff"/>
    <path id="Path_95" data-name="Path 95" d="M7.816,13.463a.522.522,0,0,1-.373.473c-.2.158-.344-.1-.53-.172a.584.584,0,0,1,0-.573c.072-.143.258-.143.4-.2.229.129.444.229.5.473" transform="translate(605.971 17685.633)" fill="#fff"/>
    <path id="Path_96" data-name="Path 96" d="M8.539,13.34c.1.258-.172.387-.272.5-.3.1-.444-.129-.573-.3-.057-.258.1-.4.272-.545.3-.086.444.129.573.344" transform="translate(606.337 17685.625)" fill="#fff"/>
    <path id="Path_97" data-name="Path 97" d="M51.376,13.18c-.029.33-.53.659-.573.975a2.5,2.5,0,0,1-1.548,1.4,1.211,1.211,0,0,1-.573.33c-.043-.5.4-.961.674-1.4a3.741,3.741,0,0,1,2.021-1.3" transform="translate(624.113 17685.715)" fill="#fff"/>
    <path id="Path_98" data-name="Path 98" d="M7.716,14.2a8.8,8.8,0,0,0,1.018,1.176.207.207,0,0,1-.172.258c-1.219-.072-2.05-1.333-2.652-2.208.072-.272.4-.057.573-.072.43.33.9.43,1.219.86" transform="translate(605.569 17685.758)" fill="#fff"/>
    <path id="Path_99" data-name="Path 99" d="M51.524,14.16a3.234,3.234,0,0,1-1.548,2.724c-.272.1-.573.373-.846.2a12.661,12.661,0,0,1,2.208-2.925h.2Z" transform="translate(624.31 17686.139)" fill="#fff"/>
    <path id="Path_100" data-name="Path 100" d="M47.765,14.761a.622.622,0,0,1-.43.731c-.272.029-.444-.2-.573-.4a.549.549,0,0,1,.344-.559.432.432,0,0,1,.3-.072c.158.057.229.172.358.3" transform="translate(623.281 17686.27)" fill="#fff"/>
    <path id="Path_101" data-name="Path 101" d="M6.83,14.927a12.922,12.922,0,0,1,1.348,1.19c-.33.229-.731.029-1.1.029-.846-.3-1.419-1.032-2.294-1.276.029-.272.344-.172.53-.258a4.659,4.659,0,0,1,1.52.33" transform="translate(605.08 17686.332)" fill="#fff"/>
    <path id="Path_102" data-name="Path 102" d="M34.624,12.343c-1.4-.559-2.322.9-3.742.731-.172.1-.129.272-.229.4-.072.072-.2.029-.272-.029-.072-.6-.272-1.161-.358-1.735-.143-.258-.072-.6-.2-.86-.8-2.193,1.95-.53,2.494-1.806.473-1.118-.932-1.233-1.348-2.021v-.33c-.4-.4-.831-.53-1.075-1.061A3.7,3.7,0,0,0,29.965,3.7c-.029-.158-.129-.358-.344-.272-.473.659-.831,1.19-1.276,1.806a12.767,12.767,0,0,0-1.477-1.1c-.373-.043-.731-.43-1.147-.272a.35.35,0,0,0,.072.373,3.645,3.645,0,0,0,1.219,2.466l.072.373a11.159,11.159,0,0,0-.444,3.326A18.61,18.61,0,0,1,21.22,18.02C19.8,19.626,18.1,21.188,17.88,23.4c-.072.358.057.788-.229,1.032A8.385,8.385,0,0,1,15.328,23.2c-1.147-.8-2.8-.7-3.541-2.165-.3-.573.072-1.161.358-1.591a2.927,2.927,0,0,0,.272-3.226c-.1-.029-.129.1-.2.129-.072,1.477-1.247,2.509-.8,4.157.1.473.344.774.473,1.233a2.4,2.4,0,0,1-.573-.129,6.574,6.574,0,0,0-1.677-.229c-1.147.53-2.724-.129-3.656.932-.143.029-.344.057-.3.272.545,0,1.075.158,1.62.129.874.143,1.448-.588,2.05-.9h.158c.244-.258.674-.1,1-.158a9.906,9.906,0,0,1,4.1,1.72v.1c-.5.229-1.075.387-1.577.659A3.367,3.367,0,0,0,11.644,25.8c-.4.631.129,1.176.373,1.72.029.258.057.559.272.659.8-.86.043-1.921.172-2.9a2.041,2.041,0,0,1,1.62-1.3c1.419-.6,2.451.559,3.6,1.2a16.776,16.776,0,0,1-.129,3.4,3.005,3.005,0,0,1-1.176.172c-1.964.143-3.527,1.233-5.29,1.835-.8.272-1.749.244-2.552.559a6.686,6.686,0,0,0,1.921-.072c2.451-.358,4.315-2.236,6.967-1.907l.043.072a5.872,5.872,0,0,1-1.176,1.634c-.072-.272-.1-.5-.344-.659a.462.462,0,0,0-.573.2.349.349,0,0,0,0,.373.825.825,0,0,0,.545.358c-.057.229-.33.315-.473.53-.7,1.19-2.122.7-2.953,1.534-.129.172-.573.272-.373.559a3.733,3.733,0,0,0,2.566-.659c.932-1.032,1.892-2.021,2.824-3a3.046,3.046,0,0,1-.545,2.294,2.8,2.8,0,0,0-.674-.373.61.61,0,0,0-.459.5,1.581,1.581,0,0,0,.373.5,8.8,8.8,0,0,1-2.9.932,49.21,49.21,0,0,1-5.448.4,12.1,12.1,0,0,1-2.7,0c-.946.172-1.978-.129-2.753.4-.1.115.029.244.029.373,1.147.76,2.724.158,4.028.387h9.849a4.433,4.433,0,0,0,2.021-.387,7.265,7.265,0,0,0,2.623-3.326,5.368,5.368,0,0,0,.53-1.505,2.145,2.145,0,0,1,1.864-1.534,11.4,11.4,0,0,1-.43,3.828c-.143.8-.674,1.577-.344,2.437.072.4.5.4.817.459,3.025-.043,6.05-.172,9.247.057a7.311,7.311,0,0,0,1.706.244c.057-.072.229-.1.158-.244a.913.913,0,0,0-.6-.7c-.043-.143-.272-.1-.344-.2-1.591-.9-3.527-.43-5.39-.4a4.04,4.04,0,0,1-2.767-.272c-.373-.444-.1-1.892-.1-1.892a36.472,36.472,0,0,1,1.548-4.86,4.938,4.938,0,0,0,.158-1.161,4.836,4.836,0,0,0,.143-1.706,11.753,11.753,0,0,1,.774-2.337c.143-.373.272-.774.43-1.161a3.587,3.587,0,0,1,.5-1.3c.817.516,1.606.5,2.007,1.434l.344,2.093c0,.129.1.373.272.229.645-.43.444-1.376.444-2.036.143-.774-.4-1.161-.631-1.835a3.136,3.136,0,0,1-.459-.731c-.1-.559-1.3-.932-1.032-1.62a2.106,2.106,0,0,1,.846-1.434.274.274,0,0,1,.129.172l.3-.215.029-2.107c.817,0,2.021.1,2.839.1.229.072.4.258.645.272l.2-.272,2.021-.387c-.86.1-1.376-.889-2.193-.889" transform="translate(604.036 17681.477)" fill="#fff"/>
    <path id="Path_103" data-name="Path 103" d="M26.41,10.269s.129-.014.186-.029Z" transform="translate(614.458 17684.439)" fill="#fff"/>
    <path id="Path_104" data-name="Path 104" d="M11.493,15.241a.555.555,0,0,1-.373.573c-.2-.072-.358-.1-.473-.3-.1-.272.143-.473.344-.573.2.057.444.072.5.3" transform="translate(607.613 17686.479)" fill="#fff"/>
    <path id="Path_105" data-name="Path 105" d="M10.318,15.183a.567.567,0,0,1,.1.573c-.172.158-.444.272-.6.072-.143-.143-.3-.33-.172-.53.172-.172.473-.33.674-.129" transform="translate(607.169 17686.535)" fill="#fff"/>
    <path id="Path_106" data-name="Path 106" d="M34.35,15.34l.029.029" transform="translate(617.9 17686.652)" fill="#fff"/>
    <path id="Path_107" data-name="Path 107" d="M47.9,15.72c.1.272-.115.473-.315.588-.258-.072-.573-.129-.573-.459a.475.475,0,0,1,.373-.373c.229-.086.416.1.53.244" transform="translate(623.391 17686.701)" fill="#fff"/>
    <path id="Path_108" data-name="Path 108" d="M48.794,15.656c.072.129.258.33.043.459a.831.831,0,0,0-.244.2.5.5,0,0,1-.6-.3c-.043-.272.172-.4.373-.53.172-.057.3.072.416.172" transform="translate(623.814 17686.709)" fill="#fff"/>
    <path id="Path_109" data-name="Path 109" d="M5.984,15.94a.493.493,0,0,1-.674.33.921.921,0,0,1-.2-.33c.029-.172.072-.358.272-.43a.612.612,0,0,1,.6.43" transform="translate(605.223 17686.723)" fill="#fff"/>
    <path id="Path_110" data-name="Path 110" d="M11.885,16.235c-.029.2-.258.373-.43.473a.613.613,0,0,1-.545-.358.51.51,0,0,1,.3-.5.559.559,0,0,1,.674.373" transform="translate(607.738 17686.863)" fill="#fff"/>
    <path id="Path_111" data-name="Path 111" d="M10.825,16.046a.394.394,0,0,1,.072.4c-.158.129-.373.358-.631.2-.143-.129-.33-.229-.272-.473a1.082,1.082,0,0,1,.373-.3c.2-.057.3.072.444.172" transform="translate(607.335 17686.877)" fill="#fff"/>
    <path id="Path_112" data-name="Path 112" d="M51.518,16.308a.65.65,0,0,1-.33.473.475.475,0,0,1-.545-.129c-.158-.043-.1-.258-.1-.373a.955.955,0,0,1,.473-.33.931.931,0,0,1,.5.358" transform="translate(624.918 17686.914)" fill="#fff"/>
    <path id="Path_113" data-name="Path 113" d="M52.587,16.453a.6.6,0,0,1-.473.444c-.143-.029-.416-.072-.373-.3a.436.436,0,0,1,.229-.4.453.453,0,0,1,.631.244" transform="translate(625.44 17687)" fill="#fff"/>
    <path id="Path_114" data-name="Path 114" d="M8,16.691a.5.5,0,0,1-.3.6c-.172.1-.344-.029-.473-.129a.428.428,0,0,1-.129-.5c.043-.229.272-.172.43-.272a.632.632,0,0,1,.473.3" transform="translate(606.065 17687.105)" fill="#fff"/>
    <path id="Path_115" data-name="Path 115" d="M8.836,16.856c.072.2-.158.272-.2.43-.129.072-.3.158-.444.057-.172-.158-.373-.373-.2-.6.2-.373.731-.172.846.129" transform="translate(606.443 17687.172)" fill="#fff"/>
    <path id="Path_116" data-name="Path 116" d="M50.447,16.734c.029.258-.2.43-.344.573a.439.439,0,0,1-.5-.3.5.5,0,0,1,.272-.473.539.539,0,0,1,.573.2" transform="translate(624.513 17687.164)" fill="#fff"/>
    <path id="Path_117" data-name="Path 117" d="M51.927,17.055c-.043.229-.014.473-.272.631a.686.686,0,0,1-.6-.1.46.46,0,0,1-.1-.53.578.578,0,0,1,.6-.3c.172.1.215.229.373.3" transform="translate(625.082 17687.26)" fill="#fff"/>
    <path id="Path_118" data-name="Path 118" d="M7.3,17.437c.1.2-.129.244-.2.358a.525.525,0,0,1-.5-.057c-.172-.1-.1-.358-.072-.473.229-.43.674-.129.774.172" transform="translate(605.818 17687.395)" fill="#fff"/>
    <path id="Path_119" data-name="Path 119" d="M51.426,17.9c.1.029.057.172.029.229a1.9,1.9,0,0,1-2.021-.1,8.546,8.546,0,0,0-1-.559c.129-.33.573-.3.9-.373.731.1,1.3.774,2.093.8" transform="translate(624.006 17687.414)" fill="#fff"/>
    <path id="Path_120" data-name="Path 120" d="M8.129,17.592c.043.2-.1.272-.143.43-.1.143-.3.1-.43.043a.441.441,0,0,1-.172-.631.448.448,0,0,1,.745.143" transform="translate(606.175 17687.494)" fill="#fff"/>
    <path id="Path_121" data-name="Path 121" d="M9.7,17.688c.1.229-.057.43-.244.559-.172.1-.33-.057-.473-.072C8.858,18,8.643,17.8,8.858,17.6c.229-.373.674-.172.846.1" transform="translate(606.807 17687.543)" fill="#fff"/>
    <path id="Path_122" data-name="Path 122" d="M30.648,18.506c-.043.5-.874-.072-.76.6a3.8,3.8,0,0,0,.5,1.419c.244.33.115.86.1,1.262a2.384,2.384,0,0,1-.946.817c-.717-.072-1.749.358-2.093-.53a3.542,3.542,0,0,1-.4-1.19c.072-.043.172-.043.244-.115,0-.172-.186-.272-.158-.43.8-.143-.33-.86.358-.9.573.588,1.491.4,1.993,1.047a1.431,1.431,0,0,0,.358.3c-.086-.6-.373-1.19-.473-1.835a.845.845,0,0,1,.287-.846c.43-.33.788.143,1.018.4" transform="translate(614.736 17687.803)" fill="#fff"/>
    <path id="Path_123" data-name="Path 123" d="M11.172,18.314c.072.258-.129.4-.272.53-.229.1-.344-.143-.444-.272-.072-.258.1-.373.258-.5a.543.543,0,0,1,.473.244" transform="translate(607.533 17687.834)" fill="#fff"/>
    <path id="Path_124" data-name="Path 124" d="M21.962,18.46a3.424,3.424,0,0,1-.3,2.81c-.029.2.043.53-.229.5-.674-.932-.172-2.236.1-3.226.043-.258.344-.358.43-.1" transform="translate(612.154 17687.934)" fill="#fff"/>
    <path id="Path_125" data-name="Path 125" d="M36.841,18.92a2.829,2.829,0,0,1,.043,2.337l-.2.2a5.7,5.7,0,0,1-.573-1.792,6,6,0,0,0,.3-1.333c.344-.072.33.373.43.573" transform="translate(618.664 17687.945)" fill="#fff"/>
    <path id="Path_126" data-name="Path 126" d="M13.238,19.014c-.143.3-.573.373-.846.573a3,3,0,0,1-2.222.43,2.739,2.739,0,0,1,2.853-1.19c.057.1.172.057.229.172" transform="translate(607.416 17688.137)" fill="#fff"/>
    <path id="Path_127" data-name="Path 127" d="M5.224,19.57a6.852,6.852,0,0,1,1.72,2.466c.072.1.33.129.229.33-.2.158-.4-.143-.674-.1A2.757,2.757,0,0,1,4.98,19.67c0-.1.143-.1.244-.1" transform="translate(605.166 17688.488)" fill="#fff"/>
    <path id="Path_128" data-name="Path 128" d="M36.189,20.182c.029.258-.029.5-.229.573a.456.456,0,0,1-.573-.3c-.072-.172.072-.272.129-.4a.44.44,0,0,1,.674.129" transform="translate(618.342 17688.648)" fill="#fff"/>
    <path id="Path_129" data-name="Path 129" d="M47.413,28.024c0-.473.129-.932.172-1.391a1.066,1.066,0,0,0,.1-.53c.6-.8,1.821-.545,2.767-.473A5.235,5.235,0,0,0,51.7,25.9a.892.892,0,0,1,.631-.129c.8-.43.272-1.362.33-2.093l-.3-.76a3.053,3.053,0,0,1-.2-.5c-.143-.172-.244-.5-.4-.674a10.014,10.014,0,0,0-1.95-2.609,10.455,10.455,0,0,0-5.276-3.24c-1.978-.674-3.971.2-5.749.831a1.408,1.408,0,0,1-.975-1.061A5.046,5.046,0,0,1,38.281,13a9.534,9.534,0,0,1,.674-1.677,18.158,18.158,0,0,0,1.018-4.329A2.28,2.28,0,0,0,38.626,5a1.339,1.339,0,0,0-1.376.287,3.707,3.707,0,0,1-1.62,1.462c-.043.43.473.143.645.3.559.1,1.176-.072,1.62.272a4.394,4.394,0,0,1-1.047,2.595,20.007,20.007,0,0,0-2.279,3.928l-.1-.1L34.6,19.9c.788,1.319,1.792,2.839,3.269,3.34.8.659,1.806,1.434,2.867.86.573-.172.631.631.9.961.3.932-.373,1.591-.416,2.437l-.645,1.376a17.5,17.5,0,0,1-2.58,4.258c-.373,0-.6.4-.975.43-.2.272-.6.072-.846.172-.774.33-1.878.129-2.394.86a.29.29,0,0,0,.2.115c1.52.029,3.226.129,4.846.057a.594.594,0,0,0,.4-.473c-.229-.43.072-.8.272-1.133.129-.6.53-.989.7-1.563.53-1.032,1.133-2.036,1.706-3.068l.774-1.262a8.1,8.1,0,0,1,.774-1.4,2.835,2.835,0,0,0,.444-.688c.029-.258-.1-.358-.244-.53.172-.172.444-.129.674-.172a2.841,2.841,0,0,1,1.4,1.663l.229.659.1.3-.043.831.1.774a17.473,17.473,0,0,1-.229,3.656c-.43,1.462-2.093,1.3-3.3,1.634-.3.2-.874.1-.874.6a23.257,23.257,0,0,0,4.7.1c.244-.1.3-.33.416-.559.043-.33.373-.6.272-.961-.272-.358-.029-.9-.1-1.391a.88.88,0,0,0,0-.473c.2-.731.158-1.606.3-2.322l.1-.946Z" transform="translate(617.654 17682.139)" fill="#fff"/>
    <path id="Path_130" data-name="Path 130" d="M52.857,20.373c-.8,1.133-1.649,2.408-3.054,2.81-.1,0-.2.043-.244-.072.846-.9,1.3-2.308,2.623-2.638a.816.816,0,0,1,.674-.1" transform="translate(624.496 17688.816)" fill="#fff"/>
    <path id="Path_131" data-name="Path 131" d="M4.532,21.346c-.129.1-.029.33-.244.358a.416.416,0,0,1-.53-.229.442.442,0,0,1,.33-.545c.2.1.4.172.444.43" transform="translate(604.626 17689.072)" fill="#fff"/>
    <path id="Path_132" data-name="Path 132" d="M10.268,21.678c.072.229-.172.229-.3.272A2.71,2.71,0,0,1,7.1,21.219c0-.1,0-.2.1-.229,1.018.258,2.222.057,3.068.688" transform="translate(606.085 17689.102)" fill="#fff"/>
    <path id="Path_133" data-name="Path 133" d="M5.527,21.3a.686.686,0,0,1,.043.373.564.564,0,0,1-.631.229.81.81,0,0,1-.33-.33.586.586,0,0,1,.43-.473.753.753,0,0,1,.473.2" transform="translate(605.006 17689.148)" fill="#fff"/>
    <path id="Path_134" data-name="Path 134" d="M21.84,21.387c.057.229-.143.373-.3.473a.48.48,0,0,1-.53-.2c-.072-.172,0-.43.172-.473.229-.043.573-.029.645.2" transform="translate(612.104 17689.178)" fill="#fff"/>
    <path id="Path_135" data-name="Path 135" d="M52.8,21.465c.072.258-.158.373-.33.53A.564.564,0,0,1,52,21.924c-.029-.129-.172-.229-.129-.4a.529.529,0,0,1,.573-.3,2.8,2.8,0,0,1,.358.258" transform="translate(625.496 17689.199)" fill="#fff"/>
    <path id="Path_136" data-name="Path 136" d="M53.957,21.375c.143.229.014.4-.1.573a.349.349,0,0,1-.444.158c-.158-.158-.344-.229-.373-.459,0-.2.229-.344.373-.43.244-.1.344.158.559.158" transform="translate(626.005 17689.188)" fill="#fff"/>
    <path id="Path_137" data-name="Path 137" d="M3.846,21.943c.029.172-.129.272-.172.43-.129.043-.244.158-.4.1a.732.732,0,0,1-.373-.4.635.635,0,0,1,.444-.5.678.678,0,0,1,.5.373" transform="translate(604.265 17689.352)" fill="#fff"/>
    <path id="Path_138" data-name="Path 138" d="M40.514,21.888a.65.65,0,0,1,.029.33c-.143.2-.344.373-.6.258-.143-.158-.33-.3-.244-.53a.484.484,0,0,1,.817-.043" transform="translate(620.209 17689.406)" fill="#fff"/>
    <path id="Path_139" data-name="Path 139" d="M6.6,22.25a.425.425,0,0,1-.344.373c-.229.029-.3-.172-.416-.272,0-.229-.029-.459.2-.573a.455.455,0,0,1,.573.473" transform="translate(605.539 17689.434)" fill="#fff"/>
    <path id="Path_140" data-name="Path 140" d="M4.967,22.243a.556.556,0,0,1-.244.559.592.592,0,0,1-.674-.358.708.708,0,0,1,.444-.573c.229,0,.344.244.473.373" transform="translate(604.764 17689.482)" fill="#fff"/>
    <path id="Path_141" data-name="Path 141" d="M41.7,22.187a.514.514,0,0,1-.272.6c-.3.1-.559-.158-.674-.358.129-.2.143-.473.444-.53a.566.566,0,0,1,.5.287" transform="translate(620.676 17689.498)" fill="#fff"/>
    <path id="Path_142" data-name="Path 142" d="M5.754,22.279c.072.172-.072.244-.129.373-.129,0-.2.158-.344.1-.1-.129-.3-.172-.33-.358-.029-.244.143-.373.33-.473a.463.463,0,0,1,.473.358" transform="translate(605.152 17689.504)" fill="#fff"/>
    <path id="Path_143" data-name="Path 143" d="M51.863,22.46a.761.761,0,0,1-.416.4c-.2.057-.33-.129-.473-.2-.129-.1-.072-.33-.029-.459a.5.5,0,0,1,.917.244" transform="translate(625.075 17689.523)" fill="#fff"/>
    <path id="Path_144" data-name="Path 144" d="M53.181,22.5a.668.668,0,0,1-.6.43c-.229-.1-.473-.272-.3-.573.1-.1.143-.2.3-.229.3-.1.516.129.6.387" transform="translate(625.649 17689.586)" fill="#fff"/>
    <path id="Path_145" data-name="Path 145" d="M44.868,22.587c.129.33-.172.43-.373.573a1.243,1.243,0,0,1-.473-.2.583.583,0,0,1,.358-.659.621.621,0,0,1,.5.272" transform="translate(622.092 17689.67)" fill="#fff"/>
    <path id="Path_146" data-name="Path 146" d="M40.061,22.768c.129.043.072.229.043.3-.143.1-.344.358-.573.2a.443.443,0,0,1-.258-.473.469.469,0,0,1,.774-.029" transform="translate(620.032 17689.789)" fill="#fff"/>
    <path id="Path_147" data-name="Path 147" d="M41.049,22.9a.341.341,0,0,1-.2.4c-.172.186-.373-.029-.559-.072a.425.425,0,0,1-.029-.373.562.562,0,0,1,.33-.2c.172.057.373.057.444.258" transform="translate(620.449 17689.824)" fill="#fff"/>
    <path id="Path_148" data-name="Path 148" d="M11.5,22.924c.143.158-.029.33-.043.487a.515.515,0,0,1-.631.129c-.258-.1-.229-.43-.172-.631.143-.043.143-.229.344-.229a.892.892,0,0,1,.5.258" transform="translate(607.609 17689.834)" fill="#fff"/>
    <path id="Path_149" data-name="Path 149" d="M46.766,23.026c.043.258-.2.358-.373.4-.3.1-.444-.129-.573-.33,0-.158.143-.244.2-.373.344-.158.573.1.745.3" transform="translate(622.875 17689.832)" fill="#fff"/>
    <path id="Path_150" data-name="Path 150" d="M45.826,23.007c.1.258-.172.387-.272.5a.513.513,0,0,1-.545-.1c-.129-.072-.129-.229-.129-.373.158-.129.229-.272.4-.315a.691.691,0,0,1,.559.3" transform="translate(622.467 17689.852)" fill="#fff"/>
    <path id="Path_151" data-name="Path 151" d="M54.6,23.3c.043.358-.4.172-.573.272-1.047.631-2.394.158-3.4-.229.072-.33.444-.2.645-.33,1.075-.674,2.179.158,3.24.2l.072.072Z" transform="translate(624.959 17689.863)" fill="#fff"/>
    <path id="Path_152" data-name="Path 152" d="M6.736,22.967l-.1.172a4.008,4.008,0,0,1-3.226.573l-.1-.158a4.517,4.517,0,0,1,3.355-.674l.072.072Z" transform="translate(604.442 17689.893)" fill="#fff"/>
    <path id="Path_153" data-name="Path 153" d="M48.538,23.127a.554.554,0,0,1-.258.473.5.5,0,0,1-.645-.272c-.072-.2.129-.4.315-.487.172,0,.473.029.573.272" transform="translate(623.655 17689.902)" fill="#fff"/>
    <path id="Path_154" data-name="Path 154" d="M9.1,23.217c-.1.2-.057.4-.3.5a.535.535,0,0,1-.616-.33c-.072-.272.129-.358.244-.473.3-.158.53.072.674.3" transform="translate(606.549 17689.912)" fill="#fff"/>
    <path id="Path_155" data-name="Path 155" d="M7.868,23.321c.072.172-.072.272-.129.4a.435.435,0,0,1-.5.072c-.172-.158-.344-.33-.272-.6a1.246,1.246,0,0,1,.4-.272.591.591,0,0,1,.5.4" transform="translate(606.02 17689.938)" fill="#fff"/>
    <path id="Path_156" data-name="Path 156" d="M49.757,23.731a.46.46,0,0,1-.874.2.378.378,0,0,1,.1-.473c.043-.072.229-.072.315-.129a.52.52,0,0,1,.444.4" transform="translate(624.185 17690.115)" fill="#fff"/>
    <path id="Path_157" data-name="Path 157" d="M7.085,23.432c.072.2-.1.272-.129.43a3.461,3.461,0,0,1-.545,1.075c-.473.573-1.147.573-1.821.745l-.1-.2A6.62,6.62,0,0,1,7.013,23.36l.072.057Z" transform="translate(604.954 17690.127)" fill="#fff"/>
    <path id="Path_158" data-name="Path 158" d="M48.868,23.9c.057.3-.2.358-.373.473a.573.573,0,0,1-.5-.3c-.072-.272.172-.387.33-.5a.51.51,0,0,1,.545.33" transform="translate(623.812 17690.219)" fill="#fff"/>
    <path id="Path_159" data-name="Path 159" d="M8.567,23.868A.3.3,0,0,0,8.639,24c-.029.287-.229.358-.373.473a.654.654,0,0,1-.545-.244.413.413,0,0,1,.244-.573c.229-.029.53,0,.6.229" transform="translate(606.338 17690.252)" fill="#fff"/>
    <path id="Path_160" data-name="Path 160" d="M52.36,24.62c.258-.029.3-.33.573-.373a.616.616,0,0,1,.6.272c.1.3-.129.459-.33.573-.172.129-.545-.158-.53.172a.754.754,0,0,1,.344.5c-.043.1-.215.072-.3.029a3.16,3.16,0,0,1-1.792-1.563c-.1-.229-.573-.4-.3-.6a2.287,2.287,0,0,1,1.72.975" transform="translate(624.922 17690.246)" fill="#fff"/>
    <path id="Path_161" data-name="Path 161" d="M53.773,23.84c.129.115.072.344-.029.473-.129.258-.5.143-.731.129a.483.483,0,0,1-.2-.459.835.835,0,0,1,.373-.33.658.658,0,0,1,.573.186" transform="translate(625.903 17690.252)" fill="#fff"/>
    <path id="Path_162" data-name="Path 162" d="M47.832,25.148a4.055,4.055,0,0,1,.545,1c-.057.072-.172.043-.229.043-.846-.473-1.95-1-2.279-2.007-.072-.1-.272-.229-.258-.4a2.261,2.261,0,0,1,1.72.7c.172.244.373.373.473.659" transform="translate(622.783 17690.303)" fill="#fff"/>
    <path id="Path_163" data-name="Path 163" d="M7.577,24.152c.1.229-.1.4-.229.5a.6.6,0,0,1-.573-.2c-.172-.272.158-.5.358-.6.2-.029.33.172.444.3" transform="translate(605.924 17690.34)" fill="#fff"/>
    <path id="Path_164" data-name="Path 164" d="M49.619,24.563c.029.158-.172.258-.258.358-.2.029-.4.1-.573-.072-.043-.129-.172-.33-.014-.459.272-.358.674-.072.846.172" transform="translate(624.122 17690.502)" fill="#fff"/>
    <path id="Path_165" data-name="Path 165" d="M53.99,24.8a.605.605,0,0,1-.358.631.661.661,0,0,1-.6-.229c-.129-.158-.029-.3,0-.473a.605.605,0,0,1,.645-.172,1.5,1.5,0,0,1,.3.244" transform="translate(625.972 17690.629)" fill="#fff"/>
    <path id="Path_166" data-name="Path 166" d="M42.648,27.177c0,.3-.545.229-.774.444a5.329,5.329,0,0,1-2.623.373v-.143a3.677,3.677,0,0,1,3.4-.674" transform="translate(620.025 17691.717)" fill="#fff"/>
    <path id="Path_167" data-name="Path 167" d="M16.44,28.007a.471.471,0,0,1-.373.43.5.5,0,0,1-.43-.258c-.1-.3.158-.43.33-.559a.591.591,0,0,1,.473.373" transform="translate(609.777 17691.975)" fill="#fff"/>
    <path id="Path_168" data-name="Path 168" d="M41.62,28.181a.7.7,0,0,1-.373.573.735.735,0,0,1-.545-.172c-.129-.1-.043-.272-.072-.4a.544.544,0,0,1,1,0" transform="translate(620.624 17692.072)" fill="#fff"/>
    <path id="Path_169" data-name="Path 169" d="M45.887,28.211a4.051,4.051,0,0,1-2.15.874l-1.348-.029-.129-.1c.817-1,2.322-1,3.627-.9V28.2Z" transform="translate(621.331 17692.146)" fill="#fff"/>
    <path id="Path_170" data-name="Path 170" d="M11.688,28.685a.454.454,0,0,1-.315.473.484.484,0,0,1-.53-.229.447.447,0,0,1,.2-.573c.272-.172.545.129.645.33" transform="translate(607.691 17692.273)" fill="#fff"/>
    <path id="Path_171" data-name="Path 171" d="M12.52,28.85c.072.129-.043.2-.1.33-.158.072-.358.129-.473,0a.328.328,0,0,1-.158-.43c.072-.158.229-.129.3-.229a.71.71,0,0,1,.43.33" transform="translate(608.106 17692.367)" fill="#fff"/>
    <path id="Path_172" data-name="Path 172" d="M6.422,31.253c-.244.3-.645-.072-.932-.229-.874-.5-.846-1.491-1.72-2.064.1-.3.33.029.5-.029a2.631,2.631,0,0,0,.53.272c.846.473,1.047,1.29,1.62,2.036" transform="translate(604.642 17692.502)" fill="#fff"/>
    <path id="Path_173" data-name="Path 173" d="M41.146,36.234a2.211,2.211,0,0,0-.272.889l-.1.043c.072-.373-.3-.6-.2-1a10.369,10.369,0,0,1-.373-1c-.229-.4.2-.573.373-.86.344.158.473.473.717.774.158.43-.172.76-.143,1.161m39.725-9.29a1.992,1.992,0,0,0-1.878-1.032A1.717,1.717,0,0,0,77.6,26.944a1.23,1.23,0,0,0,.473,1.376.384.384,0,0,0,.5-.129c.129-.33-.229-.33-.272-.573a.831.831,0,0,1,.272-.874c.258-.258.674-.129.975-.129a1.671,1.671,0,0,1,.745.731,1.938,1.938,0,0,1,0,1.333,2.217,2.217,0,0,1-1.548,1.262c-2.079.3-24.83.2-24.83.2-2.666.258-5.72-.5-8.014.9a3.971,3.971,0,0,0-1.849,2.7,17.03,17.03,0,0,0-1.95,1.993l-.072-.072c.129-.6.4-1.133.53-1.735a10.032,10.032,0,0,0,.645-1.735,13.672,13.672,0,0,1,3.326-4.172c.631-.831,1.72-.674,2.666-.674a6.507,6.507,0,0,0,3.469.5.193.193,0,0,0,.072-.172c-.358-.33-.932-.459-1.319-.774-1-.473-1.95.143-3,.072-.043-.057-.1-.072-.072-.143a14.985,14.985,0,0,1,3.1-1.663,21.074,21.074,0,0,1,2.724-1.075c.373,0,.731-.33,1.075-.1l1.319-.344a.24.24,0,0,0,.2.072c1.133-.373,2.552-.029,3.828-.043l.172.143,1.2.3c.444.057.645.573,1.118.6.244-.344-.272-.5-.4-.731a2.728,2.728,0,0,1,1.677.258l-.244.272c-.158.272.072.473.3.573.172.057.3-.072.416-.129.33-.229-.029-.444.072-.659a23.81,23.81,0,0,1,5.319,1.505,4,4,0,0,0,1.448.473,6.663,6.663,0,0,0-1.892-1c-.43-.258-1.018-.272-1.348-.631.072-.129.258-.072.33-.172a3.761,3.761,0,0,0,2.179-1.4c.043-.143.33-.1.3-.3-.229-.244-.6.072-.9.057-1.047.2-1.491,1.434-2.552,1.663-1.276-.3-2.58-.6-3.842-.932a8.106,8.106,0,0,1-1.878-.4l-1.4-.129H58.12s-.1-.072-.072-.143c.9-.229,1.677-.76,2.58-.989l6.695-3.068a16.077,16.077,0,0,0,1.892-2.064.461.461,0,0,0-.272-.473.418.418,0,0,0-.5.1c-.3.229,0,.5,0,.774a4.347,4.347,0,0,1-1.147.989c-.1-.029-6.9,3.1-6.9,3.1a17.443,17.443,0,0,1-3.054,1.133l-1.448.229a.936.936,0,0,1-.631.573c-.4.072-.717.33-1.147.33-3.254,1.262-6.623,2.595-9.189,5.161a2.511,2.511,0,0,0,.244-1.061,2.212,2.212,0,0,0-.272-1.1c-.057-.129-.244-.545-.186-.688l-.373.229a3.435,3.435,0,0,0-.2,2.136c.072.459.444.975.1,1.391a22.74,22.74,0,0,0-2.666,4.874c-.3-.043-.459-.33-.573-.6a8.208,8.208,0,0,0,1.778-3.67c.172-.129.057-.459.229-.6-.057-.4.229-.8.029-1.133.158-.545-.731-1.061-.158-1.4l-.473.229c-1.075,1.4.559,3.527-.674,4.874v.1a3.919,3.919,0,0,1-1,1.2c-.6-.244-.831-.932-1.176-1.434a2.26,2.26,0,0,1-.229-2.337c.229-.731-.143-1.362-.229-2.021l-.244-.143a2.858,2.858,0,0,0-.344,2.939c.244.444.272,1.075.645,1.462a8.383,8.383,0,0,0,1.075,1.864c.1.258-.143.3-.272.43-.272-.172-.229-.573-.473-.76a18.257,18.257,0,0,0-3.2-4.6c-.043-.229-.272-.43-.158-.674a1.821,1.821,0,0,0,.315-1.907c-.043-.129-.2-.272-.172-.4l-.373-.3c.057.874-.53,1.663-.272,2.595v.043a47.314,47.314,0,0,0-8.315-5.018l-.229.631a17.684,17.684,0,0,1,2.681,1.362,17.4,17.4,0,0,1,2.494,1.333A17.173,17.173,0,0,1,39.426,35c.029.272.272.573.1.86a14,14,0,0,0-1.892-1.907,3.651,3.651,0,0,0-1.892-2.8c-.373-.545-1.176-.6-1.806-.788l-9.089-.043c-7.4-.1-14.135.229-21.49.1-1.018-.1-2.279-.459-2.566-1.534a1.648,1.648,0,0,1,0-1.376,1.515,1.515,0,0,1,1.276-.674c.4.043.674.43.846.7,0,.33-.272.631-.4.9.029.1.129.3.3.229a1.143,1.143,0,0,0,.645-.8c.029-.172.1-.43-.072-.559A1.669,1.669,0,0,0,2.21,26.285,2.1,2.1,0,0,0,.5,26.858a2.071,2.071,0,0,0-.4,2.107,3.365,3.365,0,0,0,2.7,2.007l24.3.1c2.38.129,5.046-.272,7.44.2a2.879,2.879,0,0,1,2.021,1.907c-.029.043-.1.029-.172.029a10.8,10.8,0,0,0-7.1-1.462,8.674,8.674,0,0,0-2.8.573,1.407,1.407,0,0,1-1.219-.4,4.167,4.167,0,0,0-3.627-.459c0,.086-.029.158.029.172,1.219-.1,1.95.961,3.054,1.075.258.057.444-.229.674-.029a24.244,24.244,0,0,1-3.469,1.563c-.373-.072-.573-.43-.874-.631-.473-.53-1.348-.3-1.993-.358-.229.057-.416-.1-.573,0a2.113,2.113,0,0,0,1.075.831c.631.272,1.348-.029,1.921.344a2.653,2.653,0,0,1-.53.358c-1.176.459-2.15,1.505-3.441,1.434a4.454,4.454,0,0,1-3.7-1.2A2.509,2.509,0,0,0,11.3,33.553c-.072.043-.172.043-.143.172.545.33.975.975,1.52,1.362.344.43,1.018,0,1.348.473a4.393,4.393,0,0,0,1.62.7,8.665,8.665,0,0,0,1.3.358l-.172.1a21.266,21.266,0,0,1-7.44.731c-.745-.029-1.477-.258-2.222-.229a1.308,1.308,0,0,0,.6.344,1.539,1.539,0,0,1-.674.2,3.878,3.878,0,0,0-.946.258,2.63,2.63,0,0,0-1.075.244A5.326,5.326,0,0,1,3.6,39.431c0,.1-.029.258.1.258.473-.2,1.075-.057,1.548-.258.817-.072,1.3-.975,1.95-1.362a3.266,3.266,0,0,1,2.552-.3c.5.129-.043.33.1.659.2.172.373.373.645.3a.5.5,0,0,1,.172-.129.564.564,0,0,0,.029-.631c.344-.229.817.029,1.2-.129.946-.029,1.892-.229,2.824-.258.143-.029.33-.172.473-.029-.072.2-.33.229-.229.5a.6.6,0,0,0,.5.373c.244-.1.473-.272.373-.6-.043-.172-.244-.2-.373-.272.53-.258,1.118-.33,1.649-.573a4.1,4.1,0,0,0,1.047-.358c.33-.029.6-.33.9-.2a5.042,5.042,0,0,1-.53,1.2c-.4,1.333-.7,3.1,0,4.372.072.029.1-.029.143-.043a6.015,6.015,0,0,1,.229-4.129c.344-2.136,2.552-2.767,4.114-3.57l.072.1a7.758,7.758,0,0,0-.946,3.5c.043.229-.1.444,0,.6a2.545,2.545,0,0,0,.917-1.161c.172-1.133-.473-2.537.674-3.369,2.05-.8,3.971-1.864,6.351-1.892.072.072.244-.057.272.1A6.174,6.174,0,0,0,28.918,33.9a5.7,5.7,0,0,0-.43,4.358c.229.774-.444,1.2-.774,1.806-.158.215-.2.588-.344.831l.487.057a2.67,2.67,0,0,0,.846-1.663.7.7,0,0,0,.473.5c.172-.272-.158-.473-.172-.76.4-.229.573.272.9.373a6.173,6.173,0,0,0,1.52.358l.172-.172A3.094,3.094,0,0,0,29,38.528a4.954,4.954,0,0,1-.444-2.867,4.434,4.434,0,0,1,.5-1.563,3.425,3.425,0,0,1,2.279-1.821h.072l.029.072c-.674.53-.745,1.262-1.147,1.907a2.127,2.127,0,0,0-.229,2.193c.158.33.072.831.43,1.061a5.9,5.9,0,0,0,.53-1.534c-.072-.831-.573-1.606-.1-2.423a2.045,2.045,0,0,1,1.348-1.1,7.636,7.636,0,0,1,3.77,1.1c.244.172.674.33.731.688a2.166,2.166,0,0,1-.932,1.692,2.114,2.114,0,0,1-2.279-.029,1.725,1.725,0,0,1-.4-1.534,1.022,1.022,0,0,1,1.1-.4c.244.129.473.373.8.229a.313.313,0,0,0,.1-.4c-.272-.143-.373-.53-.745-.573a1.634,1.634,0,0,0-1.376.272,1.781,1.781,0,0,0-.573,1.763,2.15,2.15,0,0,0,1.548,1.606A2.885,2.885,0,0,0,37.089,35.8a3.311,3.311,0,0,0,.545-1.075A6.448,6.448,0,0,1,40.2,38.054a5.358,5.358,0,0,1,.029,1.262l.874.072a.868.868,0,0,1,.072-.6,7.646,7.646,0,0,1,2.566-4.129c.43-.258.33.33.43.5a3.329,3.329,0,0,0,2.165,1.907,2.742,2.742,0,0,0,2.7-.874c.33-.6.731-1.477.172-2.122a1.7,1.7,0,0,0-1.376-.659,1.726,1.726,0,0,0-1.376.932c0,.2-.029.43.143.53.1,0,.3.029.373-.129.043-.373.373-.559.674-.76a.792.792,0,0,1,.8.158,1.277,1.277,0,0,1,.344.975,1.5,1.5,0,0,1-.817,1.176,2.532,2.532,0,0,1-2.394-.229,5.784,5.784,0,0,1-.7-1.1c-.043-.4-.2-.76,0-1.161a8.464,8.464,0,0,1,3.57-1.262,2.519,2.519,0,0,1,1.319.831c1.147,1.19-.258,2.867.545,4.186.3-.043.3-.444.43-.7.373-.9-.1-1.892-.33-2.767a5.26,5.26,0,0,0-.946-1.491.732.732,0,0,1,.3-.043,5.931,5.931,0,0,1,1.52,1.3,6.692,6.692,0,0,1,.975,4.129c-.2.745-.989,1.1-1.62,1.376a2.432,2.432,0,0,0-.674.8c.3.172.731,0,1.018-.129.473-.172.745-.774,1.075-1.061.043.029.029.1.043.158.029.272-.115.659.129.731a8.3,8.3,0,0,0,.229-1.29,2.42,2.42,0,0,1,.473,1.262c.229.444.6,1.061,1.2,1.133.143-.229-.029-.459-.072-.659-.072-.631-.6-.946-.946-1.4-.874-1.2-.473-3.1-1.147-4.458a5.2,5.2,0,0,0-1.348-1.864l.1-.1a14.419,14.419,0,0,1,3.369.6c1.376.674,3.369.53,4.014,2.322a6.517,6.517,0,0,0,1.434,2.709l.072-.043a.977.977,0,0,0,0-.932c-.143-1.262-1.247-1.563-1.821-2.609l.072-.1A17.778,17.778,0,0,1,59.683,35a5.353,5.353,0,0,1,3.641,4.559,9.98,9.98,0,0,1-.918,4.3c-.072.2-.43.43-.2.6.272-.2.315-.53.473-.76a7.025,7.025,0,0,0,.817-5.061c-.029-.33-.4-.573-.229-.9a.847.847,0,0,0,.43.229c.158-.1.373-.1.473-.287.029-.143.129-.33,0-.444a.662.662,0,0,0-.717-.172,1.139,1.139,0,0,0-.3.545,5.41,5.41,0,0,0-.889-1.333l.043-.072c1.133.373,2.15.932,3.3,1.233a1.591,1.591,0,0,0,.874.287,24.63,24.63,0,0,0,3.068.774c.745-.072,1.376.287,2.122.1v-.043l-.029.029c-.272-.344-.874-.029-1.2-.272a18.747,18.747,0,0,1-4.917-1.233c.029-.072.129-.057.2-.057a.687.687,0,0,0,.4-.631.694.694,0,0,0-.573-.272.737.737,0,0,0-.373.43.614.614,0,0,0,.373.473c-.043.057-.143.029-.229.029-.774-.358-1.52-.674-2.279-1.032-.272-.057-.5-.272-.774-.33-.573-.272-1.147-.545-1.72-.774a42.066,42.066,0,0,0-5.061-1.892q-.559-.151-1.075-.3c-.631-.172-1.247-.33-1.878-.5-2.122-.53-4.975-.573-6.824.588-.3-.1-.473.373-.631.072.53-1.391,2.05-1.835,3.426-1.892,10.021-.1,19.411-.172,29.274-.33a3.139,3.139,0,0,0,2.867-1.434,2.483,2.483,0,0,0,.172-2.308" transform="translate(603.005 17687.049)" fill="#fff"/>
    <path id="Path_174" data-name="Path 174" d="M48.712,29.106c0,.072.158.1.1.229A5.3,5.3,0,0,1,45.458,30.4c-.1.029-.2.1-.315.072-.072-.043-.1-.129-.043-.172a3.8,3.8,0,0,1,3.627-1.19" transform="translate(622.549 17692.582)" fill="#fff"/>
    <path id="Path_175" data-name="Path 175" d="M45.1,29.449c.1.344-.129.545-.4.674a.725.725,0,0,1-.545-.4c-.072-.2.1-.3.172-.43a.473.473,0,0,1,.774.158" transform="translate(622.145 17692.643)" fill="#fff"/>
    <path id="Path_176" data-name="Path 176" d="M11.953,29.457a.494.494,0,0,1-.129.53.53.53,0,0,1-.444.129c-.172-.029-.272-.229-.33-.373a.524.524,0,0,1,.33-.473c.2,0,.416-.029.573.2" transform="translate(607.798 17692.689)" fill="#fff"/>
    <path id="Path_177" data-name="Path 177" d="M9.47,31.052v.172a1.948,1.948,0,0,1-1.62-.373,3.381,3.381,0,0,0-1.319-1.262c0-.072-.158-.172,0-.229,1.247,0,1.993,1,2.953,1.677" transform="translate(605.808 17692.73)" fill="#fff"/>
    <path id="Path_178" data-name="Path 178" d="M51.036,29.391c-.573.86-1.075,1.907-2.093,2.294-.172,0-.315.258-.473.072a4.592,4.592,0,0,1,2.222-2.394.706.706,0,0,1,.344.029" transform="translate(624.023 17692.727)" fill="#fff"/>
    <path id="Path_179" data-name="Path 179" d="M12.932,29.676c.029.272-.172.33-.344.473-.2.029-.3-.129-.43-.272-.1-.258.129-.358.258-.473a.521.521,0,0,1,.53.272" transform="translate(608.268 17692.744)" fill="#fff"/>
    <path id="Path_180" data-name="Path 180" d="M53.084,29.743c-.229.33-.129.8-.344,1.161-.5.573-.917,1.233-1.72,1.362-.129-.244.172-.5.3-.731A3.6,3.6,0,0,1,52.969,29.6l.129.158Z" transform="translate(625.115 17692.834)" fill="#fff"/>
    <path id="Path_181" data-name="Path 181" d="M3.408,29.9a.5.5,0,0,1,0,.559.589.589,0,0,1-.573.1.463.463,0,0,1-.2-.6c.158-.229.6-.344.774-.043" transform="translate(604.13 17692.893)" fill="#fff"/>
    <path id="Path_182" data-name="Path 182" d="M2.428,30.131c.029.129.1.229.072.358a.59.59,0,0,1-.344.3.516.516,0,0,1-.573-.33.482.482,0,0,1,.244-.53.517.517,0,0,1,.6.2" transform="translate(603.69 17692.963)" fill="#fff"/>
    <path id="Path_183" data-name="Path 183" d="M4.506,30.234c.057.2.1.559-.2.6-.344.158-.545-.1-.745-.3a.573.573,0,0,1,.3-.5.678.678,0,0,1,.645.2" transform="translate(604.551 17693.02)" fill="#fff"/>
    <path id="Path_184" data-name="Path 184" d="M7.341,30.461c-.029.172.029.43-.172.473-.129.129-.344.072-.473.057-.043-.158-.33-.272-.172-.459a.909.909,0,0,1,.344-.272c.158.072.373,0,.473.2" transform="translate(605.816 17693.123)" fill="#fff"/>
    <path id="Path_185" data-name="Path 185" d="M54.424,30.637c-.072.172-.172.4-.373.4a.653.653,0,0,1-.573-.287c-.1-.272.129-.43.33-.5.244,0,.573.1.631.373" transform="translate(626.184 17693.117)" fill="#fff"/>
    <path id="Path_186" data-name="Path 186" d="M51.265,30.732c.029.2-.2.344-.3.43a.614.614,0,0,1-.774-.373.549.549,0,0,1,1.075-.057" transform="translate(624.769 17693.15)" fill="#fff"/>
    <path id="Path_187" data-name="Path 187" d="M53.384,30.653a.521.521,0,0,1-.229.43.608.608,0,0,1-.6-.1c-.229-.2-.043-.373.1-.53.215-.129.645-.1.717.2" transform="translate(625.747 17693.174)" fill="#fff"/>
    <path id="Path_188" data-name="Path 188" d="M2.968,30.954a.5.5,0,0,1-.3.616.57.57,0,0,1-.545-.344.473.473,0,0,1,.244-.53.578.578,0,0,1,.6.258" transform="translate(603.925 17693.303)" fill="#fff"/>
    <path id="Path_189" data-name="Path 189" d="M50.358,31.141a.559.559,0,0,1-.344.659c-.2.057-.33-.043-.473-.172-.1-.129-.229-.4-.029-.53a.491.491,0,0,1,.846.043" transform="translate(624.429 17693.387)" fill="#fff"/>
    <path id="Path_190" data-name="Path 190" d="M12.342,31.368c.1.272-.2.33-.272.473-.1.043-.3.072-.373-.029-.129-.158-.272-.3-.2-.53.115-.1.172-.2.33-.258.272-.072.373.172.53.33" transform="translate(607.984 17693.445)" fill="#fff"/>
    <path id="Path_191" data-name="Path 191" d="M54.092,31.493c.057.172-.1.258-.129.373a.642.642,0,0,1-.573.1c-.229-.129-.229-.33-.229-.559.158-.1.172-.229.344-.287a.561.561,0,0,1,.573.358" transform="translate(626.056 17693.492)" fill="#fff"/>
    <path id="Path_192" data-name="Path 192" d="M53.411,31.536c.1.3-.172.444-.373.53-.1.029-.258-.057-.287.1A6.921,6.921,0,0,1,54.3,33.5v.2a3.358,3.358,0,0,1-2.466-.946c-.172-.129-.473-.129-.674-.3.315-.33.917-.2,1.376-.229.315-.358-.373-.6.043-.9.158-.029.258-.172.459-.129a.819.819,0,0,1,.373.358" transform="translate(625.19 17693.523)" fill="#fff"/>
    <path id="Path_193" data-name="Path 193" d="M45.9,31.546c.057.129-.1.272-.129.4a.491.491,0,0,1-.545.1c-.129-.172-.33-.33-.258-.573.2-.373.846-.3.918.072" transform="translate(622.497 17693.539)" fill="#fff"/>
    <path id="Path_194" data-name="Path 194" d="M6.906,32.193c-.072.229-.172.373-.43.4a.487.487,0,0,1-.444-.3c-.029-.172.1-.272.129-.4.272-.229.774-.072.745.3" transform="translate(605.62 17693.781)" fill="#fff"/>
    <path id="Path_195" data-name="Path 195" d="M8.819,31.84c0,.344-.373.559-.5.9a2.54,2.54,0,0,1-1.993,1.663c-.1-.229.33-.5.43-.731A5.241,5.241,0,0,1,8.676,31.84h.158Z" transform="translate(605.742 17693.805)" fill="#fff"/>
    <path id="Path_196" data-name="Path 196" d="M45.508,32.191c.029.272-.229.473-.416.573-.229.072-.4-.1-.53-.2-.2-.2-.072-.4.029-.6.3-.3.731-.057.918.229" transform="translate(622.283 17693.799)" fill="#fff"/>
    <path id="Path_197" data-name="Path 197" d="M46.578,32.289a.651.651,0,0,1-.444.559c-.043-.072-.172-.029-.244-.043a.574.574,0,0,1-.33-.459c.129-.129.172-.33.344-.344.229-.029.6,0,.674.3" transform="translate(622.762 17693.873)" fill="#fff"/>
    <path id="Path_198" data-name="Path 198" d="M11.018,32.28a.543.543,0,0,1-.373.53.484.484,0,0,1-.473-.3c-.043-.229.172-.373.3-.5.3-.1.373.129.545.272" transform="translate(607.415 17693.869)" fill="#fff"/>
    <path id="Path_199" data-name="Path 199" d="M12.238,32.373a.585.585,0,0,1-.473.43.549.549,0,0,1-.444-.3c-.029-.244.172-.373.344-.5.244,0,.53.1.573.373" transform="translate(607.914 17693.875)" fill="#fff"/>
    <path id="Path_200" data-name="Path 200" d="M50.657,34.111c.129.1.344.229.3.4-.4.172-.731-.272-1.1-.358a5.277,5.277,0,0,1-1.3-2.007c.229-.229.473.043.674.129a4.874,4.874,0,0,1,1.419,1.835" transform="translate(624.059 17693.9)" fill="#fff"/>
    <path id="Path_201" data-name="Path 201" d="M50.965,32.317a.647.647,0,0,1-.057.559c-.158.258-.473.2-.7.158-.129-.158-.344-.344-.2-.573.072-.2.3-.244.473-.33.172-.029.3.129.473.2" transform="translate(624.669 17693.932)" fill="#fff"/>
    <path id="Path_202" data-name="Path 202" d="M13.8,32.765c.029.2.072.5-.172.631a.482.482,0,0,1-.6-.3c-.129-.3.143-.358.3-.5a.5.5,0,0,1,.473.172" transform="translate(608.642 17694.127)" fill="#fff"/>
    <path id="Path_203" data-name="Path 203" d="M46.639,34.2a3.653,3.653,0,0,1,.645,1.778c-.072.172.129.344-.014.487h-.1c-1.133-.8-1.376-1.935-1.806-3.068a.191.191,0,0,1-.1-.244c.244-.229.43.229.674.3l.7.76Z" transform="translate(622.628 17694.346)" fill="#fff"/>
    <path id="Path_204" data-name="Path 204" d="M16.895,33.33s0,.043.029.043a3.3,3.3,0,0,1-3.541.444.2.2,0,0,1,.129-.229,5.126,5.126,0,0,1,2.193-.473l1.19.2Z" transform="translate(608.806 17694.352)" fill="#fff"/>
    <path id="Path_205" data-name="Path 205" d="M12.83,33.411c-.846.53-1.62,1.563-2.666,1.806-.2.072-.33.358-.573.2a3.65,3.65,0,0,1,3.24-2.208Z" transform="translate(607.165 17694.398)" fill="#fff"/>
    <path id="Path_206" data-name="Path 206" d="M45.463,34.214a.408.408,0,0,1-.2.53.337.337,0,0,1-.473,0c-.229-.1-.229-.33-.229-.5.072-.172.244-.2.373-.272.229.057.4.057.53.258" transform="translate(622.328 17694.729)" fill="#fff"/>
    <path id="Path_207" data-name="Path 207" d="M44.733,34.261a1.508,1.508,0,0,1-.9.659,3.866,3.866,0,0,1-2.38-.3c.029-.2.272-.129.4-.258a5.474,5.474,0,0,1,2.552-.129.284.284,0,0,1,.33.029" transform="translate(620.98 17694.799)" fill="#fff"/>
    <path id="Path_208" data-name="Path 208" d="M12.137,34.86c-.072.1-.1.33-.3.4a.541.541,0,0,1-.5-.1c-.057-.143-.229-.272-.1-.459.057-.172.258-.229.4-.272a.548.548,0,0,1,.5.43" transform="translate(607.858 17694.93)" fill="#fff"/>
    <path id="Path_209" data-name="Path 209" d="M13.166,35.021c-.072.158-.143.387-.344.473a.551.551,0,0,1-.5-.172.614.614,0,0,1-.072-.5c.057-.129.229-.143.344-.229.244-.029.473.229.573.43" transform="translate(608.305 17694.998)" fill="#fff"/>
    <path id="Path_210" data-name="Path 210" d="M45.181,35.181a.626.626,0,0,1-.172.473.423.423,0,0,1-.545.1c-.172-.029-.229-.229-.3-.358-.143-.2.1-.33.172-.5a.54.54,0,0,1,.846.272" transform="translate(622.137 17695.08)" fill="#fff"/>
    <path id="Path_211" data-name="Path 211" d="M45.871,35.091c.029.129.1.258.057.358-.143.129-.244.444-.545.33-.158.043-.229-.158-.3-.2-.1-.258-.029-.631.3-.674.215-.072.373.129.5.2" transform="translate(622.536 17695.127)" fill="#fff"/>
    <path id="Path_212" data-name="Path 212" d="M12.557,35.642a.7.7,0,0,1-.244.688c-.272.043-.631.043-.731-.287a.671.671,0,0,1,.3-.731.589.589,0,0,1,.674.33" transform="translate(608.025 17695.307)" fill="#fff"/>
    <path id="Path_213" data-name="Path 213" d="M13.887,35.47a2.285,2.285,0,0,1-.9,1.964c-.4.072-.8.459-1.2.2v-.129a28.131,28.131,0,0,1,2.093-2.036" transform="translate(608.115 17695.379)" fill="#fff"/>
    <path id="Path_214" data-name="Path 214" d="M42.4,35.975c.1.143-.072.272-.158.4-.143.172-.43.1-.6.029s-.2-.33-.129-.5a.519.519,0,0,1,.33-.272c.229-.029.43.186.559.358" transform="translate(620.99 17695.447)" fill="#fff"/>
    <path id="Path_215" data-name="Path 215" d="M15.372,37.1c.344.573.143,1.362.344,1.978-.43.043-.6-.43-.874-.674a8.194,8.194,0,0,1-.731-2.638.153.153,0,0,1,.172-.057,6.674,6.674,0,0,1,.946,1.061c-.043.172.143.172.129.33" transform="translate(609.125 17695.48)" fill="#fff"/>
    <path id="Path_216" data-name="Path 216" d="M43.242,36.116c0,.2-.229.258-.344.373a.817.817,0,0,1-.473-.229c-.072-.244.129-.33.258-.459a.418.418,0,0,1,.573.3" transform="translate(621.395 17695.508)" fill="#fff"/>
    <path id="Path_217" data-name="Path 217" d="M45.558,38.252c0,.072-.029.229-.158.172h-.1a2.982,2.982,0,0,1-1.348-2.394H44.1a3.085,3.085,0,0,1,1.448,2.222" transform="translate(622.061 17695.623)" fill="#fff"/>
    <path id="Path_218" data-name="Path 218" d="M44.055,37.123a.547.547,0,0,1-.229.473c-.272.072-.7.043-.745-.33-.029-.244.244-.373.373-.5a.525.525,0,0,1,.6.344" transform="translate(621.686 17695.936)" fill="#fff"/>
    <path id="Path_219" data-name="Path 219" d="M43.224,37.545c-.344.932-1.3,1.4-1.95,2.107-.129-.072-.072-.272-.043-.387A3.523,3.523,0,0,1,43.152,37c.4.057,0,.33.072.53" transform="translate(620.868 17696.041)" fill="#fff"/>
    <path id="Path_220" data-name="Path 220" d="M44.19,38c0,.229-.229.33-.344.459a.694.694,0,0,1-.545-.287c-.029-.244.172-.33.315-.444A.52.52,0,0,1,44.19,38" transform="translate(621.781 17696.352)" fill="#fff"/>
    <path id="Path_221" data-name="Path 221" d="M33.407,6.241h-.272c-.717,0-.115.874.287.874.487,0,.516-.874,0-.874m-2.236.874c.717,0,.043-.874-.344-.874h-.717c-.731,0-.043.874.344.874Zm-3.039,0c.717,0,.043-.874-.344-.874h-.717c-.717,0-.043.874.344.874h.731ZM33.378,6.04a.612.612,0,0,1,.616.616.624.624,0,0,1-.616.631H25.966a.615.615,0,0,1-.616-.631.6.6,0,0,1,.616-.616Z" transform="translate(613.999 17682.619)" fill="#fff"/>
    <path id="Path_222" data-name="Path 222" d="M31.367,14.962c0,.33.444.115.76.115s.774.215.774-.115c0-.459-.444-.3-.774-.3s-.76-.158-.76.3m1.391.774c.315,0,.344-.444.344-.817,0-.86-.674,0-1.032-.8-.258.688-.946.057-.946.788,0,.5,0,.846.5.846h1.133ZM30.665,11.98l1.419.545,1.391-.545-.545,2.079,1.1-.229-.373,1.262.373,1.219-.975-.258.43,2.251L32.1,17.757l-1.419.545.573-2.251-1.133.315.3-1.262-.3-1.219,1.075.172-.53-2.079Z" transform="translate(616.067 17685.193)" fill="#fff"/>
    <path id="Path_223" data-name="Path 223" d="M28.335,13.708l-.244-.029.115.215-.186.2.244.043V14.4l.215-.158.229.158v-.258l.229-.043-.186-.2.129-.215-.258.029-.143-.258Z" transform="translate(615.157 17685.832)" fill="#fff"/>
    <path id="Path_224" data-name="Path 224" d="M27.565,14.7l-.244-.029.129.215-.2.186.244.043v.272l.229-.172.215.172v-.272l.244-.043L28,14.884l.115-.215-.244.029-.143-.258Z" transform="translate(614.822 17686.26)" fill="#fff"/>
    <path id="Path_225" data-name="Path 225" d="M28.865,14.568l-.244-.014.115.2-.186.2.244.043v.272l.229-.172.215.172V15l.244-.043-.186-.2.115-.2-.244.014-.143-.258Z" transform="translate(615.387 17686.205)" fill="#fff"/>
    <path id="Path_226" data-name="Path 226" d="M28.952,15.483l-.129-.014.057.115-.1.115.129.029v.143l.129-.1.129.1v-.143L29.3,15.7l-.1-.115.072-.115-.143.014-.086-.143Z" transform="translate(615.486 17686.652)" fill="#fff"/>
    <path id="Path_227" data-name="Path 227" d="M27.8,17.04V16.6l-.416-.072.33-.344-.2-.358.416.043.244-.444.258.444.416-.043-.2.358.315.344-.4.072v.444l-.387-.287Z" transform="translate(614.879 17686.686)" fill="#fff"/>
    <path id="Path_228" data-name="Path 228" d="M29.451,0l.889,2.165,2.222-.659-1.133,2.05,1.907,1.333-2.294.387.129,2.337L29.451,6.05,27.73,7.612l.143-2.337L25.58,4.889l1.892-1.333L26.34,1.505l2.236.659Z" transform="translate(614.098 17680)" fill="#fff"/>
    <path id="Path_229" data-name="Path 229" d="M23.692,33.866c-.258.1-.373.172-.3.444l.315,1.333a1.242,1.242,0,0,1-.086.874,1.7,1.7,0,0,1-.9.545,1.8,1.8,0,0,1-1.061-.029.768.768,0,0,1-.516-.674l-.33-1.391c-.086-.344-.215-.33-.5-.287l-.029-.1,1.677-.4.029.1c-.33.1-.473.129-.387.5l.33,1.391c.057.244.186.817.9.645a.8.8,0,0,0,.659-1.118l-.3-1.262c-.057-.258-.158-.387-.588-.3l-.029-.1,1.09-.258.029.1Z" transform="translate(611.8 17694.646)" fill="#fff"/>
    <path id="Path_230" data-name="Path 230" d="M25.02,34.318a1.079,1.079,0,0,0-1.147-.559c-.258.057-.5.244-.444.516.057.229.158.3.616.373l.8.143a.872.872,0,0,1,.717.645c.086.373-.129.946-1.047,1.147a4.251,4.251,0,0,1-.874.043.161.161,0,0,0-.115.172l-.143.029-.229-1.032.143-.029a1.075,1.075,0,0,0,1.219.674c.6-.129.53-.559.516-.6-.057-.287-.315-.33-.674-.387L24,35.393c-.932-.143-1-.5-1.047-.7-.057-.258-.029-.86.917-1.061a4.219,4.219,0,0,1,.8-.029.152.152,0,0,0,.129-.172l.143-.029.2.9-.143.029Z" transform="translate(612.953 17694.48)" fill="#fff"/>
    <path id="Path_231" data-name="Path 231" d="M27.505,36.083l-1.806.172v-.1c.358-.057.487-.086.444-.444l-.215-2.251c-.358.057-.874.129-.918.817h-.143l-.057-.846,3.039-.3.086.86h-.143c-.158-.659-.688-.631-1.047-.616l.215,2.236c.029.358.158.358.53.344v.1Z" transform="translate(613.765 17694.365)" fill="#fff"/>
    <path id="Path_232" data-name="Path 232" d="M28.5,34.577c.674,0,.932-.086.946-.631a.547.547,0,0,0-.6-.631c-.272,0-.287.043-.315.172Zm2.208,1.52-1.047-.029-1.032-1.362H28.49v.831c-.029.344.086.358.43.4v.115L27.2,36.01V35.9c.358-.029.444-.029.459-.387l.043-1.892c0-.373-.143-.387-.444-.4V33.1l1.634.029c.358,0,1.434.057,1.419.774,0,.53-.545.645-.817.717l1,1.233a.225.225,0,0,0,.2.086v.115Z" transform="translate(614.801 17694.352)" fill="#fff"/>
    <path id="Path_233" data-name="Path 233" d="M31.6,35.24l-.387-1.09-.6.975Zm1.419,1.19-1.634-.2v-.1c.33,0,.43.029.43-.115a2.576,2.576,0,0,0-.158-.588l-1.133-.143a2.6,2.6,0,0,0-.287.516c-.014.158.215.2.387.229v.115l-1.032-.129V35.9c.287,0,.373-.129.573-.43l1.4-2.179h.143l.846,2.394c.172.487.229.645.487.659v.1Z" transform="translate(615.837 17694.436)" fill="#fff"/>
    <path id="Path_234" data-name="Path 234" d="M34.926,36.925l-2.9-.53v-.1c.3.014.459.029.5-.215l.373-2.036c.043-.272-.158-.33-.373-.373v-.1l1.763.33V34c-.373-.057-.53-.072-.588.3l-.358,1.993c-.043.2.072.258.4.315a1.266,1.266,0,0,0,1.419-.588l.143.029-.387.917Z" transform="translate(616.895 17694.557)" fill="#fff"/>
    <path id="Path_235" data-name="Path 235" d="M35.919,37.177,34.17,36.8l.029-.1c.272.043.473.057.53-.2l.416-2.021c.057-.272-.172-.33-.4-.4l.029-.1,1.749.358-.029.115c-.244-.043-.473-.086-.53.2l-.416,2.021c-.057.272.143.33.416.4l-.029.1Z" transform="translate(617.824 17694.734)" fill="#fff"/>
    <path id="Path_236" data-name="Path 236" d="M37.453,36.3l-.4-1.09-.588.989ZM38.9,37.461l-1.634-.172v-.1c.33,0,.416.014.43-.129a2.662,2.662,0,0,0-.172-.588l-1.147-.115a2.974,2.974,0,0,0-.287.53c-.014.158.229.2.4.229v.115l-1.032-.115v-.1c.287,0,.373-.143.559-.444l1.362-2.222h.143l.9,2.365c.186.473.244.631.487.645v.115Z" transform="translate(618.382 17694.895)" fill="#fff"/>
    <path id="Path_237" data-name="Path 237" d="M28.423,12.937c-.3,0-.7.2-.7-.143,0-.5.344-.387.645-.387s.774-.115.774.387c0,.358-.4.143-.7.143m.889-.2c0-1.032-.573-.072-.889-.946-.229.731-.917.115-.917.9,0,.3.072.473.229.573v.3a.144.144,0,0,0,.143.143h1.09a.144.144,0,0,0,.143-.143v-.33a.666.666,0,0,0,.215-.516" transform="translate(614.94 17685.113)" fill="#fff"/>
    <path id="Path_238" data-name="Path 238" d="M35.153,21.5a.449.449,0,0,0,.473-.416.477.477,0,1,0-.473.416" transform="translate(618.045 17688.963)" fill="#fff"/>
    <path id="Path_239" data-name="Path 239" d="M33.525,10.64a2.583,2.583,0,0,0-.215.444.23.23,0,1,0,.459,0l-.229-.444" transform="translate(617.451 17684.615)" fill="#fff"/>
    <path id="Path_240" data-name="Path 240" d="M23.005,10.64a2.583,2.583,0,0,0-.215.444.23.23,0,1,0,.459,0l-.229-.444" transform="translate(612.889 17684.615)" fill="#fff"/>
    <path id="Path_241" data-name="Path 241" d="M25.639,10.64a2.519,2.519,0,0,0-.229.444.23.23,0,1,0,.459,0l-.229-.444" transform="translate(614.024 17684.615)" fill="#fff"/>
    <path id="Path_242" data-name="Path 242" d="M28.265,10.64a2.583,2.583,0,0,0-.215.444.237.237,0,0,0,.215.244.249.249,0,0,0,.229-.244l-.229-.444" transform="translate(615.17 17684.615)" fill="#fff"/>
    <path id="Path_243" data-name="Path 243" d="M30.9,10.64a2.583,2.583,0,0,0-.215.444.239.239,0,0,0,.229.244.227.227,0,0,0,.215-.244L30.9,10.64" transform="translate(616.31 17684.615)" fill="#fff"/>
    <path id="Path_244" data-name="Path 244" d="M23.009,14.25a2.519,2.519,0,0,1,.229.444.23.23,0,1,1-.459,0l.229-.444" transform="translate(612.884 17686.18)" fill="#fff"/>
    <path id="Path_245" data-name="Path 245" d="M23.009,17.76a2.519,2.519,0,0,1,.229.444.23.23,0,0,1-.229.244.239.239,0,0,1-.229-.244l.229-.444" transform="translate(612.884 17687.699)" fill="#fff"/>
    <path id="Path_246" data-name="Path 246" d="M23.429,20.54a2.519,2.519,0,0,1,.229.444.23.23,0,0,1-.229.244.239.239,0,0,1-.229-.244l.229-.444" transform="translate(613.066 17688.906)" fill="#fff"/>
    <path id="Path_247" data-name="Path 247" d="M25.639,22.01a2.583,2.583,0,0,1,.215.444.237.237,0,0,1-.215.244.249.249,0,0,1-.229-.244l.229-.444" transform="translate(614.024 17689.543)" fill="#fff"/>
    <path id="Path_248" data-name="Path 248" d="M33.665,14.25a2.583,2.583,0,0,0-.215.444.23.23,0,1,0,.459,0l-.229-.444" transform="translate(617.511 17686.18)" fill="#fff"/>
    <path id="Path_249" data-name="Path 249" d="M33.665,17.76a2.583,2.583,0,0,0-.215.444.23.23,0,0,0,.229.244.239.239,0,0,0,.229-.244l-.229-.444" transform="translate(617.511 17687.699)" fill="#fff"/>
    <path id="Path_250" data-name="Path 250" d="M33.235,20.54a2.583,2.583,0,0,0-.215.444.23.23,0,0,0,.229.244.239.239,0,0,0,.229-.244l-.229-.444" transform="translate(617.325 17688.906)" fill="#fff"/>
    <path id="Path_251" data-name="Path 251" d="M31.035,22.01a2.583,2.583,0,0,0-.215.444.23.23,0,1,0,.459,0l-.229-.444" transform="translate(616.37 17689.543)" fill="#fff"/>
    <path id="Path_252" data-name="Path 252" d="M28.345,23.58a2.583,2.583,0,0,0-.215.444.23.23,0,1,0,.459,0l-.229-.444" transform="translate(615.204 17690.223)" fill="#fff"/>
    <path id="Path_253" data-name="Path 253" d="M33.661,18.564a.416.416,0,0,0,.315.043l.143-.416s-.172-.186-.272-.158c-.4.1-.831.143-1.061.53a.763.763,0,0,0,.387.616c.143-.043.158.1.258.172a.166.166,0,0,1-.172.215c-.287-.287-.788.1-1-.258.086-.358.287-.774-.029-1.1.029-.072.143-.143.072-.215-.115-.33-.473-.072-.688-.072a.926.926,0,0,0-.86.43.723.723,0,0,0,.186.358c.086-.029.143,0,.158.1l-.244.143a.573.573,0,0,1,.1.258c-.172.072-.33-.172-.4-.287,0-.186.029-.53-.229-.573a1.028,1.028,0,0,0-.2.072.679.679,0,0,0-.1.4,1.4,1.4,0,0,0,.1.43,4.012,4.012,0,0,1,.889.874c-.215.43-.215,1.032-.717,1.262a.408.408,0,0,0-.143.387l.115.1c.3-.172.9-.215.86-.745a1.7,1.7,0,0,1,.444-.616.51.51,0,0,1,.545.258.917.917,0,0,1-.645.717c-.043.057-.029.115-.029.186.086.172.358.1.5.072.4-.272.573-.745.917-.889.043.244-.473.315-.143.545.215-.043.5.029.645-.258-.172-.4.559-.6.115-.961,0-.358.373-.5.358-.874-.143-.387-.588-.387-.717-.745a.52.52,0,0,1,.5,0" transform="translate(616.023 17687.727)" fill="#fff"/>
    <path id="Path_254" data-name="Path 254" d="M20.613,21.631a.419.419,0,1,0-.473-.416.449.449,0,0,0,.473.416" transform="translate(611.739 17689.02)" fill="#fff"/>
    <path id="Path_255" data-name="Path 255" d="M3.549,31.619a.445.445,0,1,0-.459-.444.459.459,0,0,0,.459.444" transform="translate(604.347 17693.324)" fill="#fff"/>
    <path id="Path_256" data-name="Path 256" d="M14.233,33.749s.029,0,.029-.014a.014.014,0,0,0-.014-.014h0v.043Zm.057.043h-.029l-.029-.043h0v.029H14.19V33.72h.043s.043,0,.043.014,0,.014-.029.014l.029.029h0Z" transform="translate(609.16 17694.623)" fill="#fff"/>
    <path id="Path_257" data-name="Path 257" d="M14.332,33.739s0-.014-.029-.014h.014l.014.029s0,.029-.043.029H14.26v-.029h0a.028.028,0,0,0,.029.029c.014,0,.014,0,.014-.014h-.014l-.029-.029a.028.028,0,0,1,.029-.029h.029Z" transform="translate(609.19 17694.617)" fill="#fff"/>
    <path id="Path_258" data-name="Path 258" d="M14.455,33.71h0l-.029.072h0l-.029-.057-.029.057h0l-.029-.072h.043v.057l.029-.043h.014v.043l.029-.043h.014Z" transform="translate(609.225 17694.617)" fill="#fff"/>
    <path id="Path_259" data-name="Path 259" d="M14.459,33.757h0v0m-.029.029a.051.051,0,0,0,.043-.029h0a.029.029,0,1,1,0-.057c.014,0,.029,0,.029.029s-.014.043-.072.043h0Z" transform="translate(609.264 17694.613)" fill="#fff"/>
    <path id="Path_260" data-name="Path 260" d="M14.484,33.73h.029s.014,0,.014.029-.014.029-.043.029H14.47v-.043h0v.029Z" transform="translate(609.281 17694.627)" fill="#fff"/>
    <path id="Path_261" data-name="Path 261" d="M39.111,23.7a2.968,2.968,0,0,1-1.133,2.322L31.412,30.19h-.029a.789.789,0,0,1-.5.172.842.842,0,0,1-.516-.186L23.814,26a3.012,3.012,0,0,1-1.133-2.322V10.693H39.111V23.71ZM39.6,10.22H22.18v13.3a3.21,3.21,0,0,0,1.376,2.91l6.695,4.258a.78.78,0,0,0,.616.272.808.808,0,0,0,.545-.215l6.8-4.315a3.2,3.2,0,0,0,1.362-2.91V10.22h0Z" transform="translate(612.625 17684.434)" fill="#fff"/>
    <path id="Path_262" data-name="Path 262" d="M29.9,23.78l.215-.1a1.539,1.539,0,0,0-.215.1" transform="translate(615.971 17690.27)" fill="#fff"/>
    <path id="Path_263" data-name="Path 263" d="M20.122,36.441l-.631-.975-.358,1.09.989-.115Zm1.663.817-1.649.186v-.1c.3-.057.387-.072.373-.215a2.1,2.1,0,0,0-.3-.545l-1.133.129a2.289,2.289,0,0,0-.158.573c.014.158.258.143.43.129v.1l-1.018.115v-.1c.258-.072.315-.215.43-.559l.86-2.451h.143L21.154,36.6c.287.43.373.559.616.53v.1Z" transform="translate(610.955 17694.967)" fill="#fff"/>
    <path id="Path_264" data-name="Path 264" d="M51.86,33.547a1.432,1.432,0,0,1-1.075.86c.029-.6.573-1.032.373-1.706a1.512,1.512,0,0,0-1.577-.5c-.229.158-.129.4-.2.631l-.1.831c-.5,0-.53-.444-.674-.8a1.462,1.462,0,0,1,.774-1.3,1.709,1.709,0,0,1,1.448.057,1.079,1.079,0,0,1,.817.53c.373.358.272.975.2,1.434m-2.021.258c.272-.272-.072-1.864.7-.831,0,.2.029.5-.172.659-.129.1-.315.3-.53.172m.272.631c.029.4-.344.3-.545.459h-.6a1.319,1.319,0,0,1-.072-.7,4.968,4.968,0,0,1,1.219.244m.7,3.068c-.2.258-.029.659-.272.874,0,.444-.373.674-.7.86-2.968.659-5.892-.344-8.759-.86a30.643,30.643,0,0,0-12.816-.2c-1.921.358-3.8.8-5.648,1.333a8.217,8.217,0,0,1-3.5-.029c-.9-.43-.53-1.591-.8-2.394a11.469,11.469,0,0,0-.2-1.735,1.513,1.513,0,0,1-.1-.659c.373.057.745.33,1.147.43,2.093.4,3.971-.272,5.921-.631a44.675,44.675,0,0,1,5.763-.889,37.043,37.043,0,0,1,6.695.229c.7.029,1.3.2,1.964.258,1.4.172,2.7.559,4.129.659.229.072.5.072.745.129,2.251.344,4.774.975,6.91,0a17.836,17.836,0,0,1-.5,2.609M38.083,39.353a1.721,1.721,0,0,1,.229,1.1c-.244.473-.745.473-1.2.573a.745.745,0,0,1-.573-.172c.029-.1-.029-.172-.1-.258.072-.33-.573-.659-.129-.932.4-.373,1.348-1.233,1.778-.33m.545.1c.3.072.33.4.358.659a1.346,1.346,0,0,1-.846,1.233,1.3,1.3,0,0,1-.975.1,1.576,1.576,0,0,0,1.491-.846l-.029-1.133Zm.645,3.34s-.057.072-.057.1a2.874,2.874,0,0,1-1.749-.774l-.029-.129a4.8,4.8,0,0,1,1.821.8M38.341,45.1c-.029.072-.158.072-.2.029a13.742,13.742,0,0,1-1.577-3.011l.1-.029c.6.975,1.075,2.064,1.677,3.025m-1.247-.6-.129.043c-.129-.1-.072-.373-.057-.53.143.129.272.3.172.487m-.7-1.52c.029.258.272.358.129.588a.768.768,0,0,1-.129-.588m-.143-1.649h.057v.072h-.057Zm-1.448,3.7c-.473.029-1.2.3-1.649-.1.029-.2-.2-.3-.172-.5.4-.158.745.33,1.118-.029a11.881,11.881,0,0,1,1.749.043c.272.072.7-.444.745.072-.2.831-1.19.258-1.792.5m-1.1-3,.129-.2a11.285,11.285,0,0,1-.817,1.806c-.158-.6.473-1.09.7-1.606m.7-.487c.33-.344.631.2.745.487.373.545,1.348,1.061.975,1.806-.473.43-1.233.029-1.749.358-.272-.029-.745.043-.9-.229a14.349,14.349,0,0,1,.918-2.423m-.072-.961h-.1l.143-.158c.072.057-.029.1-.043.158m.573.043c.1-.143.229-.373.4-.373a.1.1,0,0,0,.057.072,1.34,1.34,0,0,1-.459.3m.358.373s.172-.043.229,0Zm.674.788s.029.129-.057.172l-.573-.444a.635.635,0,0,1,.631.272m-.057-1.462h-.029v-.072h.029Zm1.047-1.634c-.3.1-.53.459-.831.53a1.009,1.009,0,0,1,.831-.53m-1.247-.33c-.057-.229.229-.043.33-.143l.774.043c-.4-.043-.9.874-1.1.1m-1.821.7a2.954,2.954,0,0,1,.373-.932,1.483,1.483,0,0,1,.674.1c.057.5.674,1.19,0,1.62-.229.1-.545.33-.8.1a.681.681,0,0,1-.244-.874m-.373,1.563c-.029-.1.043-.229.072-.344.129-.129.244.1.3.172a.357.357,0,0,1-.373.172m-.029-1.161H33.41V39.21h.029Zm-.3-.76c-.33-.072-.5-.459-.846-.459a2.091,2.091,0,0,1,.946-.029c.129.186-.072.33-.1.487m-.272,2.036a4.143,4.143,0,0,1,.4-1.061,2.15,2.15,0,0,1-.4,1.061m-.545,0a6.022,6.022,0,0,1-1.19-.3c-.258-.258,0-.53,0-.817a1.281,1.281,0,0,1,1.821-.33,2.569,2.569,0,0,1-.631,1.434m.229.674v.1h-.057v-.129h.1a.177.177,0,0,0-.1.029Zm-.631,1.462A18.485,18.485,0,0,1,30.7,45.245c-.057.129-.244.158-.4.186,0-.358.344-.631.5-.932.53-.674.674-1.4,1.276-2.064.143.158-.143.258-.143.459m-2.38-.258c.6-.258,1.233-.774,1.892-.545a3.369,3.369,0,0,1-1.892.545m.9-1.735a2.729,2.729,0,0,1,.8-2.265,1.466,1.466,0,0,1,1.075.043c-.645.186-1.477.33-1.62,1.161.029.33-.072.5.072.774.272.473.9.272,1.247.659a.323.323,0,0,1-.229.3,11.811,11.811,0,0,1-1.348-.674M18.744,32.831c.072-.2,0-.5.272-.559.172-.043.444-.043.473.158a4.287,4.287,0,0,1-.129.874.582.582,0,0,1-.631-.487m.072.846c.373.272.9.158,1.348.229a.93.93,0,0,1-.129.846c-.43-.1-.975-.043-1.2-.444.057-.172-.072-.43-.029-.631m-1.176-.717a1.789,1.789,0,0,1,.6-1.262,2.1,2.1,0,0,1,1.978.072,1.018,1.018,0,0,1,.4.473,1.111,1.111,0,0,1-.373,1.133h-.244a2.9,2.9,0,0,1,.143-1.133c-.029-.3-.272-.33-.473-.459a1.392,1.392,0,0,0-1.118.258,1.129,1.129,0,0,0-.33,1.1c.172.272.029.659.129.961l-.072.1c-.3-.33-.7-.674-.616-1.262M41.079,43.625a11.04,11.04,0,0,0,2.666.631c-.072.344-.688.014-.616.5A5.832,5.832,0,0,1,40.879,43.7c.043-.029.1-.1.2-.072m-15.6.4-.344-.33c.172-.229.559-.1.831-.258a4.263,4.263,0,0,1,2.122-.3,6.007,6.007,0,0,1-2.595.875m26.98-11.469a2.647,2.647,0,0,0-1.706-1.563,2.216,2.216,0,0,0-2.179.559c-.889.731-.272,1.935-.244,2.925,0,.2.029.344-.172.444-3.627-.33-7-1.233-10.594-1.606-.831-.143-1.649-.1-2.437-.272l-1-.1a41.918,41.918,0,0,0-9.161,1.032c-.631.2-1.319.258-1.95.473-.444-.072-.831.258-1.247.129l-.817.186a1.925,1.925,0,0,1-.272-.014c-.4-1.032.8-1.663.43-2.666a1.843,1.843,0,0,0-1.72-1.032,2.074,2.074,0,0,0-1.993,1.032c-.573,1.262.143,2.566.373,3.8-.043.4.4.86,0,1.19a3.369,3.369,0,0,0-2.824-.573c-.3.158-.846-.057-.989.3a6.978,6.978,0,0,0,3.641.444.35.35,0,0,1,.373.029c.1.645-.129,1.534.272,2.107a2.566,2.566,0,0,0,1.921.831,29.75,29.75,0,0,0,6.451-1.29,8.894,8.894,0,0,1,.932-.2,18.012,18.012,0,0,1,3.541-.487,5.954,5.954,0,0,0-1.047,2.265c-.3.674.516.788.774,1.161a18.485,18.485,0,0,0-2.05,1.061c-1.606-.057-2.953.545-4.444.731-.029.33.53.229.573.559-.072.229-.3.258-.473.373-.029.158,0,.172.143.2.143-.186.473-.057.616-.229.5,0,.917-.158,1.4-.172a4.639,4.639,0,0,0,1.276-.5c.53-.143.846-.5,1.376-.645.745,0,1.419-.258,2.122-.3v.158c-.573.932-1.176,1.892-1.778,2.767a.283.283,0,0,0,.172.4,1.271,1.271,0,0,0,.975-.158,26.952,26.952,0,0,0,1.419-2.7c.172-.86.8-1.3,1.419-1.892.1-.057.244-.2.344-.057a11.537,11.537,0,0,0-1.19,1.763,2.124,2.124,0,0,0,.373,2.193c.3.258.745.172,1.147.2.975-.5,2.222.3,2.968-.659.444-.072.53.444.774.7.43.129.874.545,1.3.244-.029-.272-.33-.53-.473-.788-.3-.53-.674-.961-.946-1.434a4.812,4.812,0,0,1-.4-.932,6.937,6.937,0,0,0,1.348.53,8.588,8.588,0,0,1,1.348.4,4.758,4.758,0,0,0,1.247.96c.631.3,1.319.344,1.978.6.258.029.631.229.8,0a1,1,0,0,0-.373-.272c-.072-.33.444-.158.616-.4a.359.359,0,0,0-.287-.186c-.358-.186-1.247-.258-1.491-.387a5.117,5.117,0,0,1-.874-.272c-1.505,0-2.322-1.362-3.527-1.864.272-.258.7-.459.874-.831a1.377,1.377,0,0,0,.072-1.333c-.229-.774-1.233-.674-1.806-1.1l.072-.072a10.283,10.283,0,0,1,2.7.358c2.394.33,4.616,1.233,7.125,1.276,1.376,0,3.1.072,3.77-1.247.129-.788.287-1.563.4-2.337.3-1.262,1.118-2.423,1-3.8" transform="translate(609.065 17693.402)" fill="#fff"/>
    <rect id="Rectangle_1" data-name="Rectangle 1" width="211.383" height="0.803" transform="translate(690.858 17716.83)" fill="#fff"/>
  </g>
</svg>
