<svg xmlns="http://www.w3.org/2000/svg" width="142" height="142" viewBox="0 0 142 142">
  <g id="outlook" transform="translate(-0.01 -0.115)">
    <rect id="Rectangle_2872" data-name="Rectangle 2872" width="142" height="142" rx="40" transform="translate(0.01 0.115)" fill="#ecf6fb"/>
    <path id="Path_1495" data-name="Path 1495" d="M107.3,151.648a1.068,1.068,0,0,0-.439.095l-4.727,2.152a1.079,1.079,0,0,0-.528,1.415l6.563,14.382a1.068,1.068,0,0,0,1.415.528l4.727-2.152a1.076,1.076,0,0,0,.528-1.413l-6.563-14.385a1.068,1.068,0,0,0-.973-.623m1.849,20.094a2.5,2.5,0,0,1-2.272-1.46l-6.56-14.379a2.5,2.5,0,0,1,1.235-3.3l4.727-2.152a2.5,2.5,0,0,1,3.3,1.235l6.56,14.382a2.5,2.5,0,0,1-1.235,3.3l-4.727,2.155a2.5,2.5,0,0,1-1.032.222m65.484-54.948a1.1,1.1,0,0,0-.442.1l-8.537,3.893a1.073,1.073,0,0,0-.531,1.415l9.683,21.223a1.073,1.073,0,0,0,.6.556,1.054,1.054,0,0,0,.818-.028l8.54-3.893a1.079,1.079,0,0,0,.528-1.415l-9.683-21.223a1.071,1.071,0,0,0-.973-.626m1.151,28.681a2.5,2.5,0,0,1-2.266-1.46l-9.688-21.223a2.5,2.5,0,0,1,1.232-3.3l8.54-3.893a2.5,2.5,0,0,1,3.3,1.235l9.683,21.22a2.5,2.5,0,0,1-1.235,3.3l-8.537,3.893a2.469,2.469,0,0,1-1.029.225" transform="translate(-72.37 -83.337)" fill="#005ba6" stroke="#005ba6" stroke-miterlimit="10" stroke-width="2"/>
    <path id="Path_1496" data-name="Path 1496" d="M192.363,182.684a2.5,2.5,0,0,1-2.272-1.457l-6.56-14.382a2.461,2.461,0,0,1-.067-1.9,2.5,2.5,0,0,1,1.3-1.39l40.321-18.389.592,1.3-40.321,18.386a1.079,1.079,0,0,0-.531,1.418l6.563,14.379a1.073,1.073,0,0,0,1.415.531L198,178.8l.592,1.3-5.2,2.375a2.472,2.472,0,0,1-1.032.222" transform="translate(-132.437 -104.84)" fill="#005ba6" stroke="#005ba6" stroke-miterlimit="10" stroke-width="2"/>
    <path id="Path_1497" data-name="Path 1497" d="M0,0H18.289V1.424H0Z" transform="translate(84.039 65.515) rotate(-24.5)" fill="#005ba6" stroke="#005ba6" stroke-miterlimit="10" stroke-width="2"/>
    <path id="Path_1498" data-name="Path 1498" d="M132.88,225.257l4.552,9.977,13.9-6.34-4.552-9.977Zm3.846,11.863L131,224.551l16.487-7.508,5.734,12.566Zm33.049-21.456a9.438,9.438,0,1,0,9.438,9.437,9.438,9.438,0,0,0-9.438-9.437m0,20.3A10.862,10.862,0,1,1,180.637,225.1a10.862,10.862,0,0,1-10.862,10.862" transform="translate(-94.677 -154.71)" fill="#005ba6" stroke="#005ba6" stroke-miterlimit="10" stroke-width="2"/>
    <path id="Path_1499" data-name="Path 1499" d="M236.017,233.3a4.53,4.53,0,1,0,4.53,4.53,4.53,4.53,0,0,0-4.53-4.53m0,10.483a5.954,5.954,0,1,1,5.954-5.954,5.954,5.954,0,0,1-5.954,5.954m0,33.909a.712.712,0,0,1-.712-.712v-29a.712.712,0,1,1,1.424,0v29a.712.712,0,0,1-.712.712m12.505,0a.715.715,0,0,1-.679-.495l-9.416-29.476a.712.712,0,0,1,1.357-.434l9.416,29.476a.712.712,0,0,1-.462.9Zm-25.052,0-.217-.033a.715.715,0,0,1-.462-.9l9.455-29.476a.713.713,0,0,1,1.357.437L224.148,277.2a.715.715,0,0,1-.679.495" transform="translate(-160.919 -167.445)" fill="#005ba6" stroke="#005ba6" stroke-miterlimit="10" stroke-width="2"/>
    <path id="Path_1500" data-name="Path 1500" d="M256,340.794H240.492a.712.712,0,0,1,0-1.424H256a.712.712,0,0,1,0,1.424" transform="translate(-173.208 -245.045)" fill="#005ba6" stroke="#005ba6" stroke-miterlimit="10" stroke-width="2"/>
  </g>
</svg>
