<svg id="Group_2763" data-name="Group 2763" xmlns="http://www.w3.org/2000/svg" width="32.774" height="39.798" viewBox="0 0 32.774 39.798">
  <path id="Path_820" data-name="Path 820" d="M45.751,8.762v5.987h2.119V8.762a1.036,1.036,0,0,1,.041-.3C48.7,5.855,50.465,0,50.465,0h-2.3s-.918,3.9-1.357,5.748h0C46.371,3.9,45.453,0,45.453,0h-2.3S44.92,5.855,45.71,8.466a1.041,1.041,0,0,1,.041.3" transform="translate(-37.944)" fill="#005ba6"/>
  <path id="Path_821" data-name="Path 821" d="M102.65,38.21a2.891,2.891,0,0,0,5.783,0V32.552a2.891,2.891,0,0,0-5.783,0Zm2.057-5.772a.834.834,0,0,1,1.669,0v5.887a.834.834,0,0,1-1.669,0Z" transform="translate(-90.255 -26.079)" fill="#005ba6"/>
  <path id="Path_824" data-name="Path 824" d="M27.957,146.372q-11.568-.248-23.142,0A4.922,4.922,0,0,0,0,151.293v12.046a4.922,4.922,0,0,0,4.816,4.923q11.57.248,23.142,0a4.923,4.923,0,0,0,4.817-4.923V151.293a4.922,4.922,0,0,0-4.817-4.922M7.081,164.437H4.857V151.863h-2.3v-2.1H9.388v2.1H7.081Zm7.96-5.219v5.22H13.071v-1.193c-.071.076-.111.117-.149.159a3.614,3.614,0,0,1-1.518,1.088,1.844,1.844,0,0,1-.923.083,1.135,1.135,0,0,1-.892-.71,2.756,2.756,0,0,1-.2-1.136c0-1.437,0-9.042,0-9.115h1.965c0,.066.011,5.526.012,8.188a2.177,2.177,0,0,0,.03.435.48.48,0,0,0,.691.385,2.147,2.147,0,0,0,.952-.745.344.344,0,0,0,.037-.2V153.6l1.971,0Zm7.493,4.177a1.615,1.615,0,0,1-1.676,1.187,2.225,2.225,0,0,1-1.68-.767l-.191-.2v.824H17.014V149.759h1.973v4.831a1.98,1.98,0,0,1,.213-.337,2.265,2.265,0,0,1,1.136-.722,1.711,1.711,0,0,1,2.046.93,3.814,3.814,0,0,1,.314,1.648q.005,3.077,0,6.155a3.6,3.6,0,0,1-.163,1.131m7.287-.413a2.413,2.413,0,0,1-2.084,1.709,3.3,3.3,0,0,1-1.881-.192,2.612,2.612,0,0,1-1.492-1.9,5.733,5.733,0,0,1-.144-1.226c-.016-1.607-.008-3.216,0-4.823a3.246,3.246,0,0,1,.778-2.259,2.872,2.872,0,0,1,2.457-.948,3.441,3.441,0,0,1,.857.156,2.389,2.389,0,0,1,1.628,1.933,5.825,5.825,0,0,1,.109,1.094c.016.857-.006,2.747-.006,2.747H26.258v2.708a.88.88,0,1,0,1.759,0v-1.392h2.03a9.838,9.838,0,0,1-.227,2.393" transform="translate(0 -128.588)" fill="#005ba6"/>
  <path id="Path_825" data-name="Path 825" d="M166.346,42.923a2.727,2.727,0,0,0,1.284-.667c.209-.185.4-.39.623-.61l0,1.171h2.019V31.92h-2.019V40a.359.359,0,0,1-.03.2,2.153,2.153,0,0,1-.969.745.455.455,0,0,1-.644-.389,1.884,1.884,0,0,1-.028-.329V31.92h-2v9.317a2.879,2.879,0,0,0,.131.813,1.281,1.281,0,0,0,1.639.873" transform="translate(-144.703 -28.066)" fill="#005ba6"/>
</svg>
